<svg id="Ebene_1" data-name="Ebene 1" xmlns="http://www.w3.org/2000/svg" viewBox="0 0 85 99"><defs><style>.cls-1{fill:#3e4143;}</style></defs><path class="cls-1" d="M9.39,82.52H.85V80.83l4-4.3A9.15,9.15,0,0,0,6.11,75a2.51,2.51,0,0,0,.4-1.29,1.9,1.9,0,0,0-.42-1.3,1.51,1.51,0,0,0-1.2-.48,1.64,1.64,0,0,0-1.32.58A2.31,2.31,0,0,0,3.09,74H.61a4.11,4.11,0,0,1,.54-2.08,3.7,3.7,0,0,1,1.54-1.47,4.62,4.62,0,0,1,2.25-.54,4.41,4.41,0,0,1,3,.93A3.24,3.24,0,0,1,9,73.42a4.2,4.2,0,0,1-.48,1.89,10.27,10.27,0,0,1-1.64,2.23L4,80.53H9.39Z"/><path class="cls-1" d="M20.18,78.18H15.37v-2h4.81Z"/><path class="cls-1" d="M28.94,75.2h1.32a1.86,1.86,0,0,0,1.4-.48,1.7,1.7,0,0,0,.45-1.24,1.53,1.53,0,0,0-.45-1.18,1.74,1.74,0,0,0-1.24-.42,1.83,1.83,0,0,0-1.19.39,1.27,1.27,0,0,0-.47,1H26.28a3,3,0,0,1,.53-1.75,3.46,3.46,0,0,1,1.47-1.21,4.91,4.91,0,0,1,2.08-.44,4.67,4.67,0,0,1,3.1,1,3.21,3.21,0,0,1,1.12,2.6A2.62,2.62,0,0,1,34.06,75a3.38,3.38,0,0,1-1.37,1.1,3.09,3.09,0,0,1,1.57,1.13A3,3,0,0,1,34.78,79a3.27,3.27,0,0,1-1.21,2.66,4.87,4.87,0,0,1-3.21,1,4.65,4.65,0,0,1-3.05-1,3.22,3.22,0,0,1-1.18-2.6H28.6a1.43,1.43,0,0,0,.53,1.14,1.91,1.91,0,0,0,1.29.45,2,2,0,0,0,1.39-.47,1.62,1.62,0,0,0,.5-1.24c0-1.24-.69-1.86-2.06-1.86H28.94Z"/><path class="cls-1" d="M46.13,70.06H48.7v8.63a4.15,4.15,0,0,1-.53,2.1,3.57,3.57,0,0,1-1.48,1.4,4.54,4.54,0,0,1-2.17.5,4.43,4.43,0,0,1-3.08-1,3.68,3.68,0,0,1-1.1-2.85h2.58a2,2,0,0,0,.39,1.35,1.54,1.54,0,0,0,1.21.44,1.48,1.48,0,0,0,1.18-.51,2.11,2.11,0,0,0,.43-1.43Z"/><path class="cls-1" d="M56.1,82.52a2.81,2.81,0,0,1-.25-.83,3,3,0,0,1-2.33,1,3.28,3.28,0,0,1-2.26-.79,2.53,2.53,0,0,1-.89-2,2.61,2.61,0,0,1,1.09-2.26,5.38,5.38,0,0,1,3.15-.8h1.14v-.53a1.51,1.51,0,0,0-.33-1,1.29,1.29,0,0,0-1-.39,1.47,1.47,0,0,0-1,.3A1,1,0,0,0,53,76H50.57a2.52,2.52,0,0,1,.5-1.49,3.34,3.34,0,0,1,1.4-1.07,5.12,5.12,0,0,1,2-.39,4,4,0,0,1,2.71.86,3,3,0,0,1,1,2.42v4a4.45,4.45,0,0,0,.37,2v.15ZM54.05,80.8a2.12,2.12,0,0,0,1-.24,1.69,1.69,0,0,0,.69-.66V78.31h-.93c-1.23,0-1.89.43-2,1.28v.15a1,1,0,0,0,.33.76A1.24,1.24,0,0,0,54.05,80.8Z"/><path class="cls-1" d="M62.54,74.27A3.08,3.08,0,0,1,65,73.09q3,0,3.06,3.5v5.93H65.6V76.66a1.73,1.73,0,0,0-.35-1.18,1.45,1.45,0,0,0-1.13-.38,1.69,1.69,0,0,0-1.58.84v6.58H60.07V69.38h2.47Z"/><path class="cls-1" d="M75.14,75.58a8.05,8.05,0,0,0-.89-.07,1.81,1.81,0,0,0-1.84.95v6.06H69.94V73.26h2.33l.07,1.11a2.3,2.3,0,0,1,2.06-1.28,2.76,2.76,0,0,1,.77.11Z"/><path class="cls-1" d="M80.59,82.69a4.56,4.56,0,0,1-3.32-1.25A4.44,4.44,0,0,1,76,78.11v-.24a5.56,5.56,0,0,1,.54-2.49,3.93,3.93,0,0,1,1.53-1.69,4.25,4.25,0,0,1,2.25-.6,3.82,3.82,0,0,1,3,1.2,4.86,4.86,0,0,1,1.09,3.4v1H78.5a2.32,2.32,0,0,0,.72,1.45,2.21,2.21,0,0,0,1.53.55,2.66,2.66,0,0,0,2.23-1L84.2,81a3.67,3.67,0,0,1-1.51,1.23A5,5,0,0,1,80.59,82.69Zm-.29-7.61a1.55,1.55,0,0,0-1.19.5A2.69,2.69,0,0,0,78.52,77H82v-.2a1.84,1.84,0,0,0-.44-1.27A1.58,1.58,0,0,0,80.3,75.08Z"/><path class="cls-1" d="M63,32.74l-14-15a4.5,4.5,0,0,0-6.58,6.14l6.7,7.18h-17a4.5,4.5,0,1,0,0,9h17.2l-6.88,7.12A4.5,4.5,0,0,0,49,53.44l14-14.5A4.51,4.51,0,0,0,63,32.74Z"/><rect class="cls-1" x="66.75" y="24.06" width="3" height="23"/><circle class="cls-1" cx="20.5" cy="35.56" r="5.25"/></svg>