<svg id="Ebene_1" data-name="Ebene 1" xmlns="http://www.w3.org/2000/svg" viewBox="0 0 75 99"><defs><style>.cls-1{fill:#3e4143;}</style></defs><path class="cls-1" d="M44.56,16.5H62v-5H44.56a7.48,7.48,0,0,0-14.12,0H13v5H30.44A7.47,7.47,0,0,0,35,21.06V63.5H13v5H62v-5H40V21.06A7.47,7.47,0,0,0,44.56,16.5Zm-7.06,1A3.5,3.5,0,1,1,41,14,3.5,3.5,0,0,1,37.5,17.5Z"/><path class="cls-1" d="M30.87,47h0L16.25,19.81a.85.85,0,0,0-1.5,0L.12,47h0a.77.77,0,0,0-.07.43c.68,5.62,7.33,10,15.44,10s14.76-4.42,15.44-10A.77.77,0,0,0,30.87,47ZM2.67,46.5,15.5,22.64,28.33,46.5Z"/><path class="cls-1" d="M74.87,47h0L60.25,19.81a.86.86,0,0,0-1.5,0L44.12,47h0a.77.77,0,0,0-.07.43c.68,5.62,7.33,10,15.44,10s14.76-4.42,15.44-10A.77.77,0,0,0,74.87,47Zm-28.2-.53L59.5,22.64,72.33,46.5Z"/><path class="cls-1" d="M20.85,82.5C20.53,78,18.08,74.61,15,74.61S9.47,78,9.15,82.5H8v9a1,1,0,0,0,1,1H21a1,1,0,0,0,1-1v-9ZM15,76.39c2,0,3.78,2.71,4.07,6.11H10.93C11.22,79.1,13,76.39,15,76.39Z"/><rect class="cls-1" x="50" y="82.5" width="20" height="2" transform="translate(-42.8 81.42) rotate(-53.14)"/><path class="cls-1" d="M56.5,83.5A3.5,3.5,0,1,1,60,80,3.5,3.5,0,0,1,56.5,83.5Zm0-5A1.5,1.5,0,1,0,58,80,1.5,1.5,0,0,0,56.5,78.5Z"/><path class="cls-1" d="M63.5,90.5A3.5,3.5,0,1,1,67,87,3.5,3.5,0,0,1,63.5,90.5Zm0-5A1.5,1.5,0,1,0,65,87,1.5,1.5,0,0,0,63.5,85.5Z"/></svg>