<svg id="Ebene_1" data-name="Ebene 1" xmlns="http://www.w3.org/2000/svg" viewBox="0 0 108 99"><defs><style>.cls-1{fill:#3e4143;}</style></defs><path class="cls-1" d="M76.49,67.31a2.37,2.37,0,0,1-.33,1.31,1.46,1.46,0,0,1-1,.74,36.63,36.63,0,0,1-9,1.15A31,31,0,0,1,46.57,64,30.36,30.36,0,0,1,35.71,47.58H31.36a1.68,1.68,0,0,1-1.24-.5,1.65,1.65,0,0,1-.49-1.23V41.74A1.69,1.69,0,0,1,31.36,40h3a40.16,40.16,0,0,1,.16-6.16h-3.2a1.71,1.71,0,0,1-1.24-.49A1.88,1.88,0,0,1,29.63,32V27.6a1.69,1.69,0,0,1,1.73-1.73h4.85a31.14,31.14,0,0,1,30-21.12,40.9,40.9,0,0,1,7.65.74A1.49,1.49,0,0,1,75,6.31a2.19,2.19,0,0,1,.33,1.4L73.61,14.2a2,2,0,0,1-.9,1.07,1.56,1.56,0,0,1-1.15.25A28.85,28.85,0,0,0,66,14.94a18.26,18.26,0,0,0-10.36,3A18.84,18.84,0,0,0,48.7,26H68.93a1.76,1.76,0,0,1,1.72,2.22l-.9,4.27a2.11,2.11,0,0,1-.66,1.07,1.47,1.47,0,0,1-1.07.41H46.48a39.65,39.65,0,0,0,0,6.17H66.13a1.76,1.76,0,0,1,1.73,2.22L67,46.43a1.62,1.62,0,0,1-.65,1,1.79,1.79,0,0,1-1.07.33H48.54a20,20,0,0,0,7,9.21A18.21,18.21,0,0,0,66.46,60.4,26.64,26.64,0,0,0,73,59.5a1.71,1.71,0,0,1,1.39.33A1.89,1.89,0,0,1,75.26,61Z"/><path class="cls-1" d="M3.4,84.82l.08,1a3.26,3.26,0,0,1,2.66-1.21,2.45,2.45,0,0,1,2.45,1.42,3.17,3.17,0,0,1,2.78-1.42,2.79,2.79,0,0,1,2.25.88,4.06,4.06,0,0,1,.73,2.64v5.91H11.87v-5.9A1.72,1.72,0,0,0,11.56,87a1.35,1.35,0,0,0-1.08-.37,1.54,1.54,0,0,0-1.54,1.06v6.36H6.47V88.19A1.76,1.76,0,0,0,6.16,87a1.41,1.41,0,0,0-1.08-.36,1.63,1.63,0,0,0-1.53.88v6.54H1.08V84.82Z"/><path class="cls-1" d="M21.62,94.08a2.54,2.54,0,0,1-.25-.83,3,3,0,0,1-2.34,1,3.28,3.28,0,0,1-2.25-.78,2.54,2.54,0,0,1-.9-2A2.64,2.64,0,0,1,17,89.22a5.4,5.4,0,0,1,3.16-.79h1.14V87.9a1.53,1.53,0,0,0-.33-1,1.29,1.29,0,0,0-1-.39,1.45,1.45,0,0,0-1,.3,1,1,0,0,0-.36.83H16.09a2.46,2.46,0,0,1,.49-1.49A3.31,3.31,0,0,1,18,85a5.07,5.07,0,0,1,2-.39,4,4,0,0,1,2.72.86,3,3,0,0,1,1,2.42v4a4.38,4.38,0,0,0,.36,2v.14Zm-2.05-1.72a2.15,2.15,0,0,0,1-.24,1.58,1.58,0,0,0,.69-.66V89.87h-.93c-1.24,0-1.89.43-2,1.29v.14a1,1,0,0,0,.32.76A1.28,1.28,0,0,0,19.57,92.36Z"/><path class="cls-1" d="M29.17,87.59l1.56-2.77h2.64l-2.63,4.54,2.74,4.72H30.83l-1.65-2.91-1.64,2.91H24.88l2.74-4.72L25,84.82h2.65Z"/><path class="cls-1" d="M47.36,94.08H38.82V92.39l4-4.3a10.28,10.28,0,0,0,1.23-1.58,2.6,2.6,0,0,0,.4-1.28,1.91,1.91,0,0,0-.42-1.31,1.54,1.54,0,0,0-1.2-.47,1.63,1.63,0,0,0-1.32.57,2.33,2.33,0,0,0-.49,1.52H38.57a4,4,0,0,1,.55-2.08A3.8,3.8,0,0,1,40.65,82a4.62,4.62,0,0,1,2.25-.54,4.39,4.39,0,0,1,3,.93A3.26,3.26,0,0,1,47,85a4.2,4.2,0,0,1-.48,1.88,10.62,10.62,0,0,1-1.64,2.23l-2.84,3h5.36Z"/><path class="cls-1" d="M57.26,88.93a6.32,6.32,0,0,1-1.07,3.95,4.27,4.27,0,0,1-6.24,0,6.15,6.15,0,0,1-1.11-3.85V86.77a6.23,6.23,0,0,1,1.08-4A3.74,3.74,0,0,1,53,81.45a3.78,3.78,0,0,1,3.12,1.34,6.21,6.21,0,0,1,1.1,3.85Zm-2.47-2.52a4.51,4.51,0,0,0-.43-2.26,1.59,1.59,0,0,0-2.61,0,4.38,4.38,0,0,0-.44,2.1v3a4.74,4.74,0,0,0,.42,2.27,1.42,1.42,0,0,0,1.33.74,1.4,1.4,0,0,0,1.31-.71,4.63,4.63,0,0,0,.42-2.18Z"/><path class="cls-1" d="M59.16,92.87a1.22,1.22,0,0,1,.4-1,1.37,1.37,0,0,1,1-.37,1.42,1.42,0,0,1,1,.37,1.25,1.25,0,0,1,.4,1,1.2,1.2,0,0,1-.4.94,1.55,1.55,0,0,1-2,0A1.23,1.23,0,0,1,59.16,92.87Z"/><path class="cls-1" d="M72.4,88.93a6.26,6.26,0,0,1-1.07,3.95,4.27,4.27,0,0,1-6.24,0A6.15,6.15,0,0,1,64,89.06V86.77a6.23,6.23,0,0,1,1.09-4,4.27,4.27,0,0,1,6.23,0,6.09,6.09,0,0,1,1.1,3.85Zm-2.47-2.52a4.64,4.64,0,0,0-.42-2.26,1.43,1.43,0,0,0-1.32-.7,1.39,1.39,0,0,0-1.29.67,4.16,4.16,0,0,0-.44,2.1v3a4.88,4.88,0,0,0,.41,2.27,1.42,1.42,0,0,0,1.33.74,1.39,1.39,0,0,0,1.31-.71,4.63,4.63,0,0,0,.42-2.18Z"/><path class="cls-1" d="M82.46,88.93a6.32,6.32,0,0,1-1.07,3.95,4.28,4.28,0,0,1-6.25,0A6.15,6.15,0,0,1,74,89.06V86.77a6.23,6.23,0,0,1,1.08-4,4.27,4.27,0,0,1,6.23,0,6.15,6.15,0,0,1,1.11,3.85ZM80,86.41a4.64,4.64,0,0,0-.42-2.26,1.59,1.59,0,0,0-2.61,0,4.27,4.27,0,0,0-.44,2.1v3a4.74,4.74,0,0,0,.42,2.27,1.56,1.56,0,0,0,2.64,0A4.78,4.78,0,0,0,80,89.37Z"/><path class="cls-1" d="M92.51,88.93a6.32,6.32,0,0,1-1.07,3.95,4.27,4.27,0,0,1-6.24,0,6.15,6.15,0,0,1-1.11-3.85V86.77a6.23,6.23,0,0,1,1.08-4,3.74,3.74,0,0,1,3.12-1.36,3.78,3.78,0,0,1,3.12,1.34,6.21,6.21,0,0,1,1.1,3.85ZM90,86.41a4.51,4.51,0,0,0-.43-2.26,1.59,1.59,0,0,0-2.61,0,4.38,4.38,0,0,0-.44,2.1v3A4.74,4.74,0,0,0,87,91.52a1.42,1.42,0,0,0,1.33.74,1.4,1.4,0,0,0,1.31-.71A4.63,4.63,0,0,0,90,89.37Z"/><path class="cls-1" d="M105.34,89.67h-2.86a2.71,2.71,0,0,0,.67,1.89,2.66,2.66,0,0,0,1.95.63,4.89,4.89,0,0,0,1.63-.26L107,94a9.93,9.93,0,0,1-2.19.24A5.06,5.06,0,0,1,101.28,93a4.58,4.58,0,0,1-1.38-3.36H98.46v-1.3H99.9V87.31H98.46V86h1.46a4.68,4.68,0,0,1,1.5-3.34,5.24,5.24,0,0,1,3.6-1.2,8.73,8.73,0,0,1,2,.27l-.31,2.08a4.71,4.71,0,0,0-1.58-.28A2.4,2.4,0,0,0,102.5,86h2.84v1.31h-2.86v1.06h2.86Z"/></svg>