<svg id="Ebene_1" data-name="Ebene 1" xmlns="http://www.w3.org/2000/svg" viewBox="0 0 54 99"><defs><style>.cls-1{fill:#3e4143;}</style></defs><path id="Pfad_236" data-name="Pfad 236" class="cls-1" d="M39.65,16.29a27.34,27.34,0,0,1,9.87,8.21,19.9,19.9,0,0,1,4.07,11.91,17.56,17.56,0,0,1-2.11,8.75,20.48,20.48,0,0,1-5,5.72,56.91,56.91,0,0,1-5.88,3.77,31.37,31.37,0,0,0-4.23,2.72,4.16,4.16,0,0,0-1.8,3.16v.9A3.61,3.61,0,0,1,31,65.05H20.12a3.6,3.6,0,0,1-3.61-3.58V59.93a14.48,14.48,0,0,1,3.92-10.25,37.91,37.91,0,0,1,8.14-5.58l.3-.15a27,27,0,0,0,5.42-3.62,5.39,5.39,0,0,0,2-4.07q0-3.32-3.46-5.42a12.2,12.2,0,0,0-6.94-2.11,11.9,11.9,0,0,0-6.93,2,29.54,29.54,0,0,0-5.58,5.42A3.54,3.54,0,0,1,11,37.55a3.4,3.4,0,0,1-2.63-.68l-6.49-5A3.5,3.5,0,0,1,.45,29.56a3.38,3.38,0,0,1,.68-2.64,33.64,33.64,0,0,1,10.7-10.1A30.71,30.71,0,0,1,27.06,13.2,27.5,27.5,0,0,1,39.65,16.29Z"/><ellipse id="Ellipse_55" data-name="Ellipse 55" class="cls-1" cx="24.66" cy="77.31" rx="9" ry="8.5"/></svg>