<svg id="Ebene_1" data-name="Ebene 1" xmlns="http://www.w3.org/2000/svg" viewBox="0 0 75 99"><defs><style>.cls-1{fill:#3e4143;}</style></defs><g id="Gruppe_416" data-name="Gruppe 416"><path id="Pfad_376" data-name="Pfad 376" class="cls-1" d="M74.45,83.8a5.76,5.76,0,0,1-5.7,5.7H6.15a5.76,5.76,0,0,1-5.7-5.7V26.6a5.76,5.76,0,0,1,5.7-5.7h5.7V16.6A7.11,7.11,0,0,1,19,9.5h2.9A7.11,7.11,0,0,1,29,16.6v4.3h17.1V16.6a7.11,7.11,0,0,1,7.1-7.1h2.9a7.11,7.11,0,0,1,7.1,7.1v4.3h5.7a5.76,5.76,0,0,1,5.7,5.7Zm-5.7,0V38.1H6.15V83.8ZM23.25,16.6a1.37,1.37,0,0,0-1.33-1.4H19a1.37,1.37,0,0,0-1.4,1.33v13a1.37,1.37,0,0,0,1.33,1.4h3a1.37,1.37,0,0,0,1.4-1.33v-13Zm34.1,0A1.37,1.37,0,0,0,56,15.2h-3a1.37,1.37,0,0,0-1.4,1.33v13A1.37,1.37,0,0,0,53,30.9h3a1.37,1.37,0,0,0,1.4-1.33v-13Z"/></g><g id="Gruppe_417" data-name="Gruppe 417"><path id="Pfad_377" data-name="Pfad 377" class="cls-1" d="M33.65,65.2V69l-12-5V60.8l12-5v3.8l-8,2.8Z"/><path id="Pfad_378" data-name="Pfad 378" class="cls-1" d="M51.25,70.9h-4V55.6l-4.7,1.5V53.9l8.3-3h.4Z"/></g></svg>