<svg id="Ebene_1" data-name="Ebene 1" xmlns="http://www.w3.org/2000/svg" viewBox="0 0 74 99"><defs><style>.cls-1{fill:#3e4143;}</style></defs><path class="cls-1" d="M69.32,21.85a1.51,1.51,0,0,0-2.41-.32c-11.39,11.82-19.45.54-41.45,8.54-23,8.38-18,35-18,35l-5.84,5.7a4.14,4.14,0,0,0,.12,6l.1.08a4.13,4.13,0,0,0,6.07-.61,52.24,52.24,0,0,1,4.55-5.2c3,2,22,10,38.65.46C81.84,53.69,73.59,29.69,69.32,21.85ZM51,47.07A39.16,39.16,0,0,0,20,62,2.5,2.5,0,0,1,18,63.07a2.45,2.45,0,0,1-1.41-.44,2.49,2.49,0,0,1-.65-3.47A43.71,43.71,0,0,1,51,42.07a2.5,2.5,0,0,1,0,5Z"/></svg>