<svg id="Ebene_1" data-name="Ebene 1" xmlns="http://www.w3.org/2000/svg" viewBox="0 0 80 99"><defs><style>.cls-1{fill:#3e4143;}</style></defs><path class="cls-1" d="M67.86,70.06c1.5,3.67,3.45,5.39,5.17,7.34.49.57,1.06,1.1.89,1.94a1.52,1.52,0,0,1-1.55,1.29,32.46,32.46,0,0,1-3.8-.71,37.11,37.11,0,0,1-12.3-5.66,44.39,44.39,0,0,1-7.78.71,38.4,38.4,0,0,1-20.87-5.84c1.28.09,2.61.18,3.89.18a43.45,43.45,0,0,0,25.34-7.7C64.23,56.22,68.3,48.92,68.3,41a22.78,22.78,0,0,0-1-6.73c7.48,4.12,12.34,10.66,12.34,18C79.62,59.53,75,65.9,67.86,70.06Z"/><path class="cls-1" d="M31.51,23.48c14.1,0,26,8,26,17.53s-11.92,17.52-26,17.52a39,39,0,0,1-6.88-.63l-2.12-.37-1.74,1.24a30.78,30.78,0,0,1-4.14,2.47q.12-.27.24-.57l1.69-4.12-3.85-2.24C8.85,50.92,5.49,46.07,5.49,41c0-9.5,11.92-17.53,26-17.53m0-5.11C14.31,18.37.38,28.49.38,41c0,7.16,4.6,13.57,11.76,17.73-1.5,3.67-3.45,5.39-5.17,7.34-.49.57-1.06,1.1-.89,1.94A1.51,1.51,0,0,0,7.5,69.31h.13a32.46,32.46,0,0,0,3.8-.71,37.11,37.11,0,0,0,12.3-5.66,44.39,44.39,0,0,0,7.78.71c17.2,0,31.13-10.13,31.13-22.64S48.71,18.37,31.51,18.37Z"/></svg>