<svg id="Ebene_1" data-name="Ebene 1" xmlns="http://www.w3.org/2000/svg" viewBox="0 0 83 99"><defs><style>.cls-1{fill:#3e4143;}</style></defs><path class="cls-1" d="M64.05,67.31a2.45,2.45,0,0,1-.32,1.31,1.48,1.48,0,0,1-1,.74,36.69,36.69,0,0,1-9,1.15A31,31,0,0,1,34.13,64,30.4,30.4,0,0,1,23.28,47.58H18.92a1.67,1.67,0,0,1-1.23-.5,1.64,1.64,0,0,1-.5-1.23V41.74A1.71,1.71,0,0,1,18.92,40h3a39,39,0,0,1,.17-6.16H18.92a1.71,1.71,0,0,1-1.23-.49,1.89,1.89,0,0,1-.5-1.32V27.6a1.71,1.71,0,0,1,1.73-1.73h4.85a31.17,31.17,0,0,1,30-21.12,40.88,40.88,0,0,1,7.64.74,1.46,1.46,0,0,1,1.15.82,2.13,2.13,0,0,1,.33,1.4L61.18,14.2a2,2,0,0,1-.91,1.07,1.56,1.56,0,0,1-1.15.25,28.69,28.69,0,0,0-5.59-.58,18.28,18.28,0,0,0-10.36,3A18.82,18.82,0,0,0,36.27,26H56.49a1.76,1.76,0,0,1,1.73,2.22l-.91,4.27a2.16,2.16,0,0,1-.65,1.07,1.47,1.47,0,0,1-1.07.41H34.05a37.33,37.33,0,0,0,0,6.17H53.7a1.76,1.76,0,0,1,1.72,2.22l-.9,4.11a1.6,1.6,0,0,1-.66,1,1.79,1.79,0,0,1-1.07.33H36.1a20,20,0,0,0,7,9.21A18.23,18.23,0,0,0,54,60.4a26.64,26.64,0,0,0,6.58-.9,1.73,1.73,0,0,1,1.4.33A1.91,1.91,0,0,1,62.82,61Z"/><path class="cls-1" d="M3.05,88.79l4.88,1.72v2.4L.56,89.79v-2l7.37-3.13V87Z"/><path class="cls-1" d="M20.23,94.08H17.76V84.55l-3,.92v-2L20,81.61h.27Z"/><path class="cls-1" d="M32.66,88.93a6.26,6.26,0,0,1-1.07,3.95,3.7,3.7,0,0,1-3.13,1.37,3.73,3.73,0,0,1-3.11-1.34,6.15,6.15,0,0,1-1.11-3.85V86.77a6.17,6.17,0,0,1,1.09-4,3.73,3.73,0,0,1,3.11-1.36,3.78,3.78,0,0,1,3.12,1.34,6.09,6.09,0,0,1,1.1,3.85Zm-2.47-2.52a4.62,4.62,0,0,0-.42-2.26,1.45,1.45,0,0,0-1.33-.7,1.38,1.38,0,0,0-1.28.67,4.16,4.16,0,0,0-.44,2.1v3a4.76,4.76,0,0,0,.41,2.27,1.42,1.42,0,0,0,1.33.74,1.39,1.39,0,0,0,1.31-.71,4.63,4.63,0,0,0,.42-2.18Z"/><path class="cls-1" d="M34.56,92.87a1.22,1.22,0,0,1,.4-1,1.54,1.54,0,0,1,2,0,1.22,1.22,0,0,1,.4,1,1.23,1.23,0,0,1-.39.94,1.46,1.46,0,0,1-1,.37,1.42,1.42,0,0,1-1-.37A1.2,1.2,0,0,1,34.56,92.87Z"/><path class="cls-1" d="M47.81,88.93a6.32,6.32,0,0,1-1.07,3.95,3.73,3.73,0,0,1-3.13,1.37,3.75,3.75,0,0,1-3.12-1.34,6.09,6.09,0,0,1-1.1-3.85V86.77a6.23,6.23,0,0,1,1.08-4,3.74,3.74,0,0,1,3.12-1.36,3.76,3.76,0,0,1,3.11,1.34,6.15,6.15,0,0,1,1.11,3.85Zm-2.48-2.52a4.62,4.62,0,0,0-.42-2.26,1.59,1.59,0,0,0-2.61,0,4.27,4.27,0,0,0-.44,2.1v3a4.88,4.88,0,0,0,.41,2.27,1.43,1.43,0,0,0,1.34.74,1.38,1.38,0,0,0,1.3-.71,4.63,4.63,0,0,0,.42-2.18Z"/><path class="cls-1" d="M57.86,88.93a6.32,6.32,0,0,1-1.07,3.95,3.71,3.71,0,0,1-3.13,1.37,3.75,3.75,0,0,1-3.12-1.34,6.21,6.21,0,0,1-1.1-3.85V86.77a6.23,6.23,0,0,1,1.08-4,3.74,3.74,0,0,1,3.12-1.36,3.78,3.78,0,0,1,3.12,1.34,6.21,6.21,0,0,1,1.1,3.85Zm-2.47-2.52A4.49,4.49,0,0,0,55,84.15a1.59,1.59,0,0,0-2.61,0,4.38,4.38,0,0,0-.44,2.1v3a4.74,4.74,0,0,0,.42,2.27,1.56,1.56,0,0,0,2.64,0,4.63,4.63,0,0,0,.42-2.18Z"/><path class="cls-1" d="M67.91,88.93a6.26,6.26,0,0,1-1.07,3.95,4.27,4.27,0,0,1-6.24,0,6.15,6.15,0,0,1-1.11-3.85V86.77a6.17,6.17,0,0,1,1.09-4,3.73,3.73,0,0,1,3.11-1.36,3.78,3.78,0,0,1,3.12,1.34,6.09,6.09,0,0,1,1.1,3.85Zm-2.47-2.52A4.62,4.62,0,0,0,65,84.15a1.45,1.45,0,0,0-1.33-.7,1.38,1.38,0,0,0-1.28.67,4.16,4.16,0,0,0-.44,2.1v3a4.76,4.76,0,0,0,.41,2.27,1.42,1.42,0,0,0,1.33.74A1.39,1.39,0,0,0,65,91.55a4.63,4.63,0,0,0,.42-2.18Z"/><path class="cls-1" d="M80.75,89.67H77.88a2.71,2.71,0,0,0,.67,1.89,2.67,2.67,0,0,0,2,.63,4.83,4.83,0,0,0,1.62-.26L82.44,94a9.93,9.93,0,0,1-2.19.24A5,5,0,0,1,76.69,93a4.55,4.55,0,0,1-1.39-3.36H73.86v-1.3H75.3V87.31H73.86V86h1.46a4.68,4.68,0,0,1,1.5-3.34,5.25,5.25,0,0,1,3.6-1.2,8.73,8.73,0,0,1,2,.27l-.31,2.08a4.66,4.66,0,0,0-1.58-.28A2.4,2.4,0,0,0,77.9,86h2.85v1.31H77.88v1.06h2.87Z"/></svg>