<svg id="Ebene_1" data-name="Ebene 1" xmlns="http://www.w3.org/2000/svg" viewBox="0 0 88 99"><defs><style>.cls-1{fill:#3e4143;}</style></defs><path class="cls-1" d="M13.37,77.21l-5-1.74V73.09l7.45,3.12v2L8.4,81.36V79Z"/><path class="cls-1" d="M28.34,69.93v2H28.1a4.26,4.26,0,0,0-2.7.87,3.53,3.53,0,0,0-1.22,2.36,3.32,3.32,0,0,1,2.5-1,3.16,3.16,0,0,1,2.59,1.16,4.67,4.67,0,0,1,.95,3.06,4.58,4.58,0,0,1-.52,2.2,3.72,3.72,0,0,1-1.49,1.53,4.28,4.28,0,0,1-2.18.55,4.06,4.06,0,0,1-3.18-1.37,5.34,5.34,0,0,1-1.21-3.65v-.89a8,8,0,0,1,.77-3.58,5.59,5.59,0,0,1,2.2-2.41,6.53,6.53,0,0,1,3.32-.86Zm-2.41,6.25a2,2,0,0,0-1.09.31,1.93,1.93,0,0,0-.72.83v.75A3.36,3.36,0,0,0,24.61,80a1.59,1.59,0,0,0,1.37.7,1.56,1.56,0,0,0,1.29-.63,2.55,2.55,0,0,0,.49-1.63,2.51,2.51,0,0,0-.5-1.64A1.62,1.62,0,0,0,25.93,76.18Z"/><path class="cls-1" d="M41.34,70.06h2.57v8.63a4.15,4.15,0,0,1-.53,2.1,3.63,3.63,0,0,1-1.48,1.4,4.54,4.54,0,0,1-2.17.5,4.41,4.41,0,0,1-3.08-1,3.68,3.68,0,0,1-1.1-2.85h2.58a2,2,0,0,0,.39,1.35,1.53,1.53,0,0,0,1.21.44,1.46,1.46,0,0,0,1.17-.51,2.11,2.11,0,0,0,.44-1.43Z"/><path class="cls-1" d="M51.31,82.52a2.54,2.54,0,0,1-.25-.83,3,3,0,0,1-2.34,1,3.25,3.25,0,0,1-2.25-.79,2.5,2.5,0,0,1-.89-2,2.61,2.61,0,0,1,1.09-2.26,5.34,5.34,0,0,1,3.15-.8H51v-.53a1.51,1.51,0,0,0-.33-1,1.29,1.29,0,0,0-1-.39,1.45,1.45,0,0,0-1,.3,1,1,0,0,0-.36.82H45.78a2.52,2.52,0,0,1,.5-1.49,3.34,3.34,0,0,1,1.4-1.07,5.08,5.08,0,0,1,2-.39,4,4,0,0,1,2.71.86,3,3,0,0,1,1,2.42v4a4.32,4.32,0,0,0,.37,2v.15ZM49.26,80.8a2.15,2.15,0,0,0,1-.24A1.69,1.69,0,0,0,51,79.9V78.31H50c-1.24,0-1.89.43-2,1.28v.15a1,1,0,0,0,.32.76A1.28,1.28,0,0,0,49.26,80.8Z"/><path class="cls-1" d="M57.75,74.27a3.08,3.08,0,0,1,2.47-1.18q3,0,3.06,3.5v5.93H60.8V76.66a1.73,1.73,0,0,0-.34-1.18,1.49,1.49,0,0,0-1.14-.38,1.67,1.67,0,0,0-1.57.84v6.58H55.28V69.38h2.47Z"/><path class="cls-1" d="M70.34,75.58a7.7,7.7,0,0,0-.89-.07,1.81,1.81,0,0,0-1.83.95v6.06H65.14V73.26h2.34l.07,1.11a2.28,2.28,0,0,1,2.06-1.28,2.76,2.76,0,0,1,.77.11Z"/><path class="cls-1" d="M75.79,82.69a4.55,4.55,0,0,1-3.31-1.25,4.41,4.41,0,0,1-1.28-3.33v-.24a5.56,5.56,0,0,1,.54-2.49,3.93,3.93,0,0,1,1.53-1.69,4.23,4.23,0,0,1,2.25-.6,3.84,3.84,0,0,1,3,1.2,4.86,4.86,0,0,1,1.09,3.4v1H73.71a2.32,2.32,0,0,0,.72,1.45A2.21,2.21,0,0,0,76,80.7a2.68,2.68,0,0,0,2.23-1L79.4,81a3.64,3.64,0,0,1-1.5,1.23A5,5,0,0,1,75.79,82.69Zm-.28-7.61a1.54,1.54,0,0,0-1.19.5A2.61,2.61,0,0,0,73.73,77h3.44v-.2a1.84,1.84,0,0,0-.44-1.27A1.58,1.58,0,0,0,75.51,75.08Z"/><path class="cls-1" d="M81,32.74l-14-15a4.5,4.5,0,0,0-6.58,6.14l6.7,7.18h-50a4.5,4.5,0,0,0,0,9h50.2l-6.88,7.12A4.5,4.5,0,0,0,67,53.44l14-14.5A4.51,4.51,0,0,0,81,32.74Z"/><rect class="cls-1" x="84.75" y="24.06" width="3" height="23"/><circle class="cls-1" cx="5.5" cy="35.56" r="5.25"/></svg>