<svg id="Ebene_1" data-name="Ebene 1" xmlns="http://www.w3.org/2000/svg" viewBox="0 0 75 99"><defs><style>.cls-1{fill:#3e4143;}</style></defs><g id="Gruppe_357" data-name="Gruppe 357"><path id="Pfad_338" data-name="Pfad 338" class="cls-1" d="M74.45,83.8a5.76,5.76,0,0,1-5.7,5.7H6.15a5.76,5.76,0,0,1-5.7-5.7V26.6a5.76,5.76,0,0,1,5.7-5.7h5.7V16.6A7.11,7.11,0,0,1,19,9.5h2.9A7.11,7.11,0,0,1,29,16.6v4.3h17.1V16.6a7.11,7.11,0,0,1,7.1-7.1h2.9a7.11,7.11,0,0,1,7.1,7.1v4.3h5.7a5.76,5.76,0,0,1,5.7,5.7V83.8Zm-5.7,0V38.1H6.15V83.8ZM23.25,16.6a1.37,1.37,0,0,0-1.33-1.4H19a1.37,1.37,0,0,0-1.4,1.33v13a1.37,1.37,0,0,0,1.33,1.4h3a1.37,1.37,0,0,0,1.4-1.33v-13Zm34.1,0A1.37,1.37,0,0,0,56,15.2h-3a1.37,1.37,0,0,0-1.4,1.33v13A1.37,1.37,0,0,0,53,30.9h3a1.37,1.37,0,0,0,1.4-1.33v-13Z"/></g><g id="Gruppe_358" data-name="Gruppe 358"><path id="Pfad_339" data-name="Pfad 339" class="cls-1" d="M24.35,71h-4.1V55.2l-4.9,1.5V53.4l8.5-3.1h.4V71Z"/><path id="Pfad_340" data-name="Pfad 340" class="cls-1" d="M39.35,63.8h-8V60.5h8Z"/><path id="Pfad_341" data-name="Pfad 341" class="cls-1" d="M49.85,58.8h2.2a3.18,3.18,0,0,0,2.3-.8,2.87,2.87,0,0,0,.8-2.1,2.33,2.33,0,0,0-.7-1.9,2.72,2.72,0,0,0-2-.7,3.34,3.34,0,0,0-2,.6,2.15,2.15,0,0,0-.8,1.7h-4.2a5,5,0,0,1,.9-2.9,5.91,5.91,0,0,1,2.4-2,7.66,7.66,0,0,1,3.4-.7,7.29,7.29,0,0,1,5.1,1.6,5.44,5.44,0,0,1,1.9,4.3,4.31,4.31,0,0,1-.9,2.6A5.22,5.22,0,0,1,56,60.3a5,5,0,0,1,3.5,4.8,5.58,5.58,0,0,1-2,4.4,8.06,8.06,0,0,1-5.3,1.7,7.35,7.35,0,0,1-5-1.6,5.34,5.34,0,0,1-2-4.3h4.1a2.31,2.31,0,0,0,.9,1.9,3.14,3.14,0,0,0,2.1.7,3.39,3.39,0,0,0,2.3-.8,2.45,2.45,0,0,0,.8-2c0-2.1-1.1-3.1-3.4-3.1h-2.2V58.8Z"/></g></svg>