<svg xmlns="http://www.w3.org/2000/svg" xmlns:xlink="http://www.w3.org/1999/xlink" viewBox="0 0 296 400" style="enable-background:new 0 0 296 400"><style>.st0{fill:#e3e3e3;stroke:#666;stroke-width:.3119}</style><g id="mecklenburg-vorpommern"><path id="Usedom" class="st0" d="M254.6 61.5 252.9 63.1H254.1L255.1 62.5 255.9 62.9 258.5 63H261.6L262.9 63.2 264.2 64.7 265.6 65.9 266.6 66 269 64.3 267.6 63.1 265.7 63.2 264.2 62.1 263.1 60.3 261.6 58.5 259.7 56.7 257.5 53.6 255.5 53 253.7 51.5 251.5 49.5 250.2 47.8 249.4 48.6 250.4 49.9 251.1 51.5 251 55.1 252.9 53.5 253.7 53.6 252.9 55.6 253.9 55.3 254.9 53.7 258 55.6 257.9 59.1 256.6 58.9 255.9 59.2 255 58.4 254.4 57.8 254 58.8 254.7 60.3z"/><path id="Rügen" class="st0" d="M247.9 43.7l.1-2.1 1.3-2.5-.6-.6-1.1-.6-.6-.8-1.7-.3c0 0-1.5.2-1.6-3.2l1.3-2.3.7-.3-.1-3.1c0 0-.7-1.1-2.3-.3l-1.3.6-1.2-.3-1.3-.2c0 0-2.4-2-1.3-4.2l1.2-1.3L237 22l-1.2.5-1.3.3-1.3.4-.8.8-.3 1.8-1.2 2.3v.9l.6-.1 1.2-1.6.6-2.2h.8l-.2 2.8 1.3-.3 1.7-1.7 1.3 2.1c0 0 1.7.4 1.8.9l1.3-.3-.1 2.2.9 1.4.5 1.6c0 0 .8 3.7-2.1 2.2l.7-1.8-.2-1.2-1.3-.3-1-1-.3-2.3-.7-.3-.2 1.3-.7.1-.2-2.3-1 .3-.8.6v2l-1-1.5h-1.1-1.5l-.4.9 1.3 1.3 1.4 1.2c0 0-.6 1.8-1.8 1.3-1.3-.4-.5 1.8-.1 1.3.4-.5 1.5.8 1.6 1l.1 1h-2.3c0 0-1.6 1.4.2 2.8.0.0.8.3-.2 1.1l1.8.3 1 1.3c0 0 2.1 1.7 1.7-.8.0.0 2.6-1 1.3 1l-.7 1.3 1 1 1.3.3 1.2-1 .1-.8L238 44l.1-1.1 1-.3.6-1.2.3-1.8.7-.6.2 1 1.8-1.3 1.3.1.8.1.7-.6 1.3-.3-.1.8-1.3 1.3 1.3.4-1.3 1.3.7.7.8.2v1h1z"/><path id="Hiddensee" class="st0" d="M229.1 25.8 228.9 27.8 228.5 30 227.7 31.3 228.3 33.5 228.8 31.4 229.4 30.3 229.7 29.6 229.8 28.1 230 26.5 229.8 25.7z"/><path id="Poel" class="st0" d="M177.6 54.5l1.8-1.3 1.8.7-1.6 2.4C179.6 56.3 176.8 57.9 177.6 54.5z"/><path id="Mecklenburg-Vorpommern_1_" class="st0" d="M269.3 86.3v-3l-1.5-3.3-1.2-3.3-1-2.7-.7-2 .2-2.2-3.3.7-2.2-1.2-2.3-1.3-1.7-.7-1.5-1.2-.8-1.5-1.3-.3v-2.5l1.2-.2.3-1.3-1-1.3-2.2-2.2-.5-4.3-.3-1.7-1.2-1-.2-1.5-2.5 1.5h-1.8l-2.2 1.5-.3.8-1-.8-.7-1.2-1.2-.8.3-1.3-2.5.3-1.7-3-2.8-.5.3-1-1-.8-3-2.7 1-2.2-2.3-1.2c0 0 2.2-3.2-1.2-1-3.3 2.2-2.5 2.7-2.5 2.7l-.7.3c0 0-2.2 1.5-1.3-1 .8-2.5-1.3-.2-1.3-.2l-1.5.7h-.8v-.7l-2 1.2L214 38l-1.3 1.3-2 2.3-.3 2.2c0 0-2 1.3-2-1.2.0-2.5 2.7-4.2 2.7-4.2l1.5-1 2-.3.8-.7h1.7l.7-.7 1.1.9 1.3-.1.9-.6.7-.3h.8l.6.8.5.1.3-.4.5-.5-.4-.4-.7-.1h-1.9l-4-.2h-2.3l-.7-.1-1.5-.6-4.5 6-7.6 7.5.1 4.2-1.8-3.5-5.2 2.1c0 0-1.1 1.1-3.1.1-2.1-.9-1.8-1.3-1.8-1.3l-.9-.1H187l-1 .6-1.1.3-1.3.4-.8.1-.8 1c0 0-.7 2.1 1.2 1.4 1.9-.7 2-1.5 2-1.5l-.4 1.3-.5.9-1 1.1-1.4.4-.8.3-.4 4.9-2 .1-1.1-.9-1-.1-.6.6c0 0-.8 1.4-1.9.0l-.4-2.3-.8-1.2-.5-1.3-.8-.9-4.7 1.4-3.3 3.3-.9 1.8-1.1.6v.5c0 0 .9.7.0 1.7l-.8.9-.7.9.2 1.5-.4.7v1.1l-.9.9c0 0-1.9 2.8.8 3h3.1l1-.5h1.8l.3 1.1L165 75l-.5.9-.2 1.2-.5.9-.8 1-.5.6-1.6 1.2-.8.6-.9.9-1.5 1-.6.4-.7.9v.9l-.3 1-.1.8.1.9 1.8-.4v-.7c1.5.1 1.7-1.7 1.7-1.7l1.8.1 1 1.5.3 1.4 5.5 5.3 1.6 3.1 1.5.1 1.8 2-.1-1.1 3.1-.5-.4-.8c0 0 4-1.8 5.9-3.9l4.5.4.4-1.6 2.3 1.4c0 0 3.9-.5 4.3-5.8l.3-1.8c0 0 .5-1.4 1.3.0l1.4 2.5 4.6.1 3.3 1.5 2.4 2.6 6.4 3.6 6 1 2.3 1.3 3.8.5.5 1c0 0 1-1.5 2.1-1.3l1.3-1.8 3.1-1.4 1.6 1 1.4-.1.9-2.4 2.4-.1.5 1.9 3-1.8 1.9-3.8-.3-1.8 2.3-2.5 1.9-1.9 2.8-2.5-.1-2.4 1.6 2.3 1.3.4.1 1.5 1.3.6v1.6l1.4-.4h1.5l1.1.5 2.3-.8 1.9.3 2.1-.6.1 2.6-2.6 2.5c0 0-4 4.5.0 3.1l3 .4.6-1.9 2-1.5.8-.1L269.3 86.3z"/></g><g id="niedersachsen"><g id="Ostfriesische_Inseln"/><path id="Wangerooge_2_" class="st0" d="M72.2 63.6 73.1 63.9 73.6 64.2 73.9 63.8V63.2L73.5 62.7 72.5 62.6H71.8L71.7 63.3z"/><path id="Spiekeroog_2_" class="st0" d="M68.2 64H69.9L69.7 64.7 68.7 64.9 67.9 65.1 67.2 65.3 66.4 64.6 66.2 64 67.2 63.9z"/><path id="Langeoog_2_" class="st0" d="M61.5 64.6 63.7 65.4v.5L62.5 65.7H61L60.5 66 59.9 65.5 60.8 64.6z"/><path id="Baltrum_2_" class="st0" d="M57.6 65.3 58.8 66.2 58.4 66.9 57.5 66.8 56.9 66.4 57.2 65.7z"/><path id="Norderney_2_" class="st0" d="M50.9 65.5H52.8 54L55.3 65.8 53.6 66.7 51.7 66.6 50.5 65.9z"/><path id="Juist_2_" class="st0" d="M41.6 67.3 44.1 67.2 45.3 66.8 46.4 66.5 47.3 65.8 47.9 66.4 48.2 67.2 47.4 67.5 46.3 67.6 45.6 67.8 44.4 68.2H42L41.1 67.7z"/><path id="Scharhörn" class="st0" d="M89.8 53.9 90.5 54.4 90.2 55.3 89.4 56.2 88.5 56.5V55.7L88 54.5 88.8 53.9z"/><path id="Neuwerk" class="st0" d="M92.2 57.7 91.8 58.6H91.1L90.7 57.9 91.1 57 91.8 57.1z"/><path id="Niedersachsen_1_" class="st0" d="M128 79.2l.4 1.2 1 1.9 1.1 1.6 1.6-.1 1.6.6 1.2.4 1.9-.1 1.1 1.2 1.4.4 2.2.3.8-.4 1.4-.7 1.1-.9 2.1-.2 1.6 1.2 3.3 1.1 4.4 1.4 1.8-.4V87c1.5.1 1.7-1.7 1.7-1.7l1.8.1 1 1.5.3 1.4 5.5 5.3 1.6 3.1 1.5.1 1.8 2 1.3.9 1.1.4 1.1.1.8 5.3-.9 1-.3 2.3-1.6 1.2-4.2 1.6-4.3-2.1-3.8 1-1.3 1-1.7 1.2-1.4.7c-3.1.4-2.2 1.3-2.2 1.3 2.3 2.4 2.6 5.5 2.6 5.5l1 1.1 1.5 1.1 1.2.6.5.8-.8 3.6.7 1.4-.4 3.9 2.4 2.6-1.6 2.1 1.6 2.2-.9.9 1.6 2.8-1.4 1.7 1.3 1.9-2.3 2.3-.9 1.3-.4 1.1-2.4.6-3.3.4-2.3-.1-.6 1-.6.9c-5.4 1.6-.6 3-.6 3l.7 3-.4 1-.9 1.9-.4 1.5-.1 1.6.5 1.4 1.6 2.6.7.9-.3.6.2 1.1.4 1.2-1.6.4-.5 2.2c1.4 3.6-2.1 1.9-2.1 1.9l-1.5-.4-1.8-.6-1.9-1.1-2.1.1-.3 1.4-.5.7.4.6-.9 1.3-1.3 1.3-1.3.8-1.6.4-.6.9-1.1 1.1-1.4.8-2.7-.5-.8 1.7-2.5.8-2.6-.5-1.5 1.6-1.3.9c-1.3 1.6.4 1.3.4 1.3 2.1.2.8 1.5.8 1.5l-.4 1.1-1.6.1-1.5-.4-1.9-1.3v-1.6l.6-1.2 1.3-1.4.7-1.3-.1-1.4-1.4-1.8.5-.6.1-1.1 2.3-1.4-.1-1.5-.4-1.2-1.6-1.8-1.4-.3-3.5-.1-1.8.7-1.1-1.6.8-1.8.5-1.9.2-2.1 1-1.9-.3-2.8-2.3-.5.1-2.4-.9-.8-1.1-1.8-3.6-1.1.4-3.3-1.1-4.3-3.5-.4c-1.3-.3-.6-1-.6-1 2-1.8 1.1-3.7 1.1-3.7l-1.4-2.5-.8-1.2 5.3-6-.3-1.4-.1-1.1.7-1c0 0 .9-1.3.0-.9-.9.3-1.4-.7-1.4-.7l-1.3.8-1.6 1-.3.5-1.3 2.1-1.6 1.3-1.6-.1-.8-.4-1.1.7c-1.5.4-2-1.2-2-1.2l-.3-5.5-1.3-1-2.7 1.3-2.9-.4-.1.8c-.6 2.8-3.3 2.3-3.3 2.3l-1.1-.3-.9-.1-.1.4.6 1-.2 2.3 5.1 2.3-.5 4.2-.3.7c-1.1 1-.2 2.3-.2 2.3l.8.8.7.8.3 1.1-.6.6-1.3.4-2.8 1.6-1.8.1-.8-1.4-4.4 3-1.3.2h-1.3l-.9-.4-.8-.3-.5.3h-1.1l-1-.1-.5-.4v-2l.4-.4 1-.3.9-.3.6-.5-.1-.8-.6-.8-.7-1.5-.5-1-.6-1.4-.1-1.3.4-1.6c.1-.7.8-.9.8-.9 2 .3 1-1.2 1-1.2l-.5-1.2-.3-.4-1-.6-2.8-.2-1.1-.4-.7-1.2-.4-1.1.1-.5-.5-.8c-3.6-2.2-4.6 1.1-4.6 1.1l-.2 3-1.8 1.3-1.4.7-1 1-1.3 1-1.3.3-1.9.3-1.2.2-2.3.1-2 1.3-2.1-.4.4-1.1v-1.3l.6-1.8.6-2.2.2-2.4-.5-2-.6-1.6-.9-1.2-2 .1-1.6-.1-1.8-.4-2.4-.9-.4-1.3.2-2.4.8-1.9 1.5-.8 2.6-.1 3.1.8 2 .1 1.3-.8.3-1.8v-2.5l.3-2.6.7-2.1.9-2.4 2.1-1.9.9-2.1.4-2-.1-3.2.1-5.3.2-3.7c2.3-.8.5-2.9.5-2.9l1.1-.6 2-.1-.6-1.3-2.2-.9-2.3-2.2-.4.8-1.1-.1c-2.9 2.6-2.8-2.4-2.8-2.4l2.3-3.7c.9-1.9 2.9-.3 2.9-.3l.8-.8c2.8-3-2.1-2.2-2.1-2.2l.2-2.3 4.4-2.9 10 .2 2.9-.4 1.4.2 1.8.1 1.4-.5 4.7-.2.1 3.1.7 1 .7.3.6.9.6 1.1.7 1.6c1.3 2.6-1.1 2.2-1.1 2.2-1.6-.1-1.1 1.3-1.1 1.3l.4 2.4c.4 1.4 1.3.6 1.3.6 1.5-.9 2.4.9 2.4.9 2.4 2.9 2.4-1.3 2.4-1.3l1.3-.8.1-1.6c.3-2.4-2.3-1.4-2.3-1.4l.4-3.4 2.3-.6 2.4 2.4 1.1.3 1.8 1.9V80l2 .3.1-1.3.1-.8.2-1.2-.4-1.2-1.1-1.7L90.9 73l-1-3.9 2.2-2.3.4-1 1.8-5.3c1.6-1.8 3.1-.3 3.1-.3l.7 1 1.8.1 1.2 1.3h.8l1.8.8 1.6-.9 1.6.4 2-.8 3.4.4 2.6.9 3.1 6 2.4 2.4 1.3 1.7 1.1 2.6 3.2 3.2h.9L128 79.2z"/><path id="Bremen2" class="st0" d="M93.1 78.4 94.1 78.8 94.9 78.3 95.5 77.5 95.2 76.6 94.8 75.4 94.9 74.1 94.8 73 94.3 72.9 93.5 73 92.4 72.5 91.6 72.8 90.9 73 91.2 74.2 92.3 75.9 92.7 77.1 92.4 78.3z"/></g><g id="hamburg"><path id="Hamburg_1_" class="st0" d="M144.3 84l.5-.5-.5-.7-1-.6-1.1-1.3-.7-.9-1.3-.2-.2-.5-.2-1.5c-.5-.9.8-.9.8-.9 1.1.0.5-.8.5-.8l-.3-1 .8-.9.3-.3-1-1c-1.7-.8-.7-2.3-.7-2.3l.9-1.2-1.5-.5-2.4 2.5-2.2.4-.4 1.5-2.4.1-2.2 2.9-1.9-2-.9 2.6v.8l1.6.1 2.1.8 1.8.4-.1.8-.7.3h-1.3l-1-.6-1.4-.3H128l.4 1.2 1 1.9 1.1 1.6 1.6-.1 1.6.6 1.2.4 1.9-.1 1.1 1.2 1.4.4 2.2.3.8-.4 1.4-.7 1.1-.9L144.3 84z"/></g><g id="schleswig-holstein"><g id="Nordfriesische_Inseln"/><path id="Sylt" class="st0" d="M89.9 1.5c0 0 1.1-1.2 1.5.1.4 1.3-.2.8-.2.8l.6.4-.4.6-1 .7-1.3 2.4.5.6L90 9.2l1.6.8c0 0 2.4.8.1 1.3.0.0-1.4.3-1.4.8l-.9-.9-.6-.9h-1.2l-.3.8v2.3l-.8 1.6.3 2.4L86 18.2l-.8-1.1-.1-2.5.4-1.3v-1.6L86 9.8l.8-1.5.3-1.9 1-1.2L89 3.9 89.9 1.5z"/><path id="Föhr" class="st0" d="M94.1 15.4c0 0 .9.2 1 .8l.3.7.6.5L95.5 18l-.9.5-1.2.3-1.2.1-1.1-.8-.8-.8.2-1.2.9-.8 1.3.2.3.3L94.1 15.4z"/><path id="Amrum" class="st0" d="M87.9 18.6 89 18.9 89.5 20 90 21.3 89.8 21.8 89.2 21.6 88.4 20.8 87.7 20.2 87.6 19.1z"/><path id="Langeneß" class="st0" d="M94.3 20.9 94.1 21.6 94.2 22.5h1L96.5 22.1 97.2 21.8 97.1 21.1 96.1 20.8H94.9z"/><path id="Pellworm" class="st0" d="M95.5 27.6 97.1 27.7l.5-1L98 27.2 98.1 28.1V29.2L97.2 29.4 96.3 29.1 95.4 28.2z"/><path id="Nordstrand" class="st0" d="M104.1 27.5 105 28.6 105.7 29.1 105.2 30 104.6 30.6 103.7 31.4 102.8 30.6 102.2 30.7 102.1 29.6V28.8L102.7 28.1z"/><path id="Helgoland_2_" class="st0" d="M73.5 42.3 74.4 42.6 74.8 43.3 74.2 43.9 73.5 43.5 72.8 42.7z"/><path id="Trischen_2_" class="st0" d="M95.4 48.4 96 49 96.1 49.8 96.7 49.9 96.8 50.9 96.5 51.7 95.6 50.9 94.9 50.2 94.3 49.6 94.8 48.8z"/><path id="Fehmarn_2_" class="st0" d="M169.7 33.8l-.2 1.2 1.7.6.4-.7 1.3.1.2.9 2.2.2-.6-1.2-.9-2.7c0 0-.3-2.1-2.4-2 0 0-2.1-.1-2.4-1.5l-1.4 1-.7 1.8c0 0 0 3.3 1.7 1.4L169.7 33.8z"/><path id="Schleswig-Holstein_1_" class="st0" d="M160.6 61.9l-1.2-1.4 1.4-.1.4-1.4-.7-3.1-1-1.3c0 0-1.3-1.1-.3-1.6 1.1-.6 1.1-.6 1.1-.6v-.5c0 0 1.1-2.8 2.5-1.1l1.6-.5.6-1.1 2.7-1.4.8-.9.4-1.1.3-7.4.7-.9-.4-.6-2.8.5-1.9-1.1-.8.8-.6.1-2.4 2.4-1.1.8-1.4.4-.8-.3-.2-1.4-3.4-2.2-2.3-1-2.4-1-1.9-.5-2.5-.2-1.4 1.5-1.1 1.8-.6.7c0 0-1.6 2.1-1-.1.6-2.2.6-2.2.6-2.2l.4-1.6.4-.9c0 0 .5-2.1-1.6-1.6-2.1.4-2.1.4-2.1.4l-1.4.4-1.8.4-1.1.6-1.8-1.2 3.3-1.3c0 0 1.5-.5 1.9-2.6.4-2.1 1.1-3.4 1.1-3.4l-.2-1.9-.3-1.1-.6-1.2-3.6 4.1-1.1.8-1 1-.7.5-1.4 1.8-1 .8h-1.4l-1.1-.6-.6 1.1-.8.8-1.3-2.2c0 0-.3-.8 1.2-.8h1.6l4.9-2.5 4.7-4.7.6-3.8-.8-1.8c0 0-.8-1.7-.9.4l-.7.8-1-.1-.9-.4-.6-1.1.1-.5-4.3-1-2.1-2.2-2.3 1.7c0 0-3.2 1.1-1.1-1.3l-.4-.9-1.7-.9-1.5.1-2.2-.1-2.6-2.4L109.1 6l-3.3.9-6.6-1.7-.4 3.1L98 11.1l.9 4 2.8 3.5c0 0-.4 3.9 1.9 3.1.0.0 2.2.1 1.6 2.5l.9 2 .6 1.7.9 2.3c0 0 .2 4.6-1.6 1.6l-.5.3.1.9-1.7.6-4.3.2-1.8.4c0 0-5.6 7.4 2.1 4.9.0.0 1.7-.2 2.1.5l3.8-1.6v1.9l-1.1.9-1.8.2 1 1.8-.1 1.3-1.8.4-.1 1.8 1.4 1.5 1.6-.6 1.2.1.1 1.2 1.1 1-.1 2.1-1.6 1.5-2.9-1.6-1.6.4.8 1.7-.2.8 1.8.3.7.9.1.8-1.1.2.4 1.4 1.6 1.1c0 0-.1-2.3 1.5-.4l8.9 2.9 1.8 1.9 1.8 3.9 3.2 2.8 1.8 4.3 2.1 2 1.4 1.2v-.8l.9-2.6 1.9 2 2.2-2.9 2.4-.1.4-1.5 2.2-.4 2.4-2.5 1.5.5-.9 1.2c0 0-1 1.5.7 2.3l1 1-.3.3L141 75l.3 1c0 0 .6.8-.5.8.0.0-1.3.0-.8.9l.2 1.5.2.5 1.3.2.7.9 1.1 1.3 1 .6.5.7-.5.5.4.4 2.1-.2 1.6 1.2 3.3 1.1 4.4 1.4-.1-.9.1-.8.3-1v-.9l.7-.9.6-.4 1.5-1 .9-.9.8-.6 1.6-1.2.5-.6.8-1 .5-.9.2-1.2L165 75l.8-1.4-.3-1.1h-1.8l-1 .5h-3.1c-2.7-.2-.8-3-.8-3l.9-.9V68l.4-.7-.2-1.5.7-.9.8-.9c1-1 0-1.7.0-1.7v-.5L160.6 61.9z"/></g><g id="baden-wuerttemberg"><path id="Baden-Württemberg_1_" class="st0" d="M67.6 311.7l-1.4 1.6L64 317l-.6 1.3-2.8 2.7-1.4 1.7-.9 1.4-1.4 1.9-1.5 1.8-2 1.9-1 1.9-.6 2.8-1.3 2.6-.1 2.5-2.3 4.6-2.2 5-1.1 3.6-1.3 3.3.3 3.7-1.7 2.8-2 10.1 1.7 5.5c0 0 3.1-2.5 3 1.8l1.8.6 1.4-1.8 3.2-.6 2.3 2.3 5.2-.2 3.4-1.8 2.8-.1 2.1 2.1 4 .3c0 0-1.6-2.4 1.9-2.1l2 .1.7-1.1.2-1.5c0 0 .3-2.7-2.9-.1l-.9 1.1-1.9-1.1.1-2.4 1.3-2.5 2.4-.5 1.9-.1 1.6 1.1 1.8-.7 1.6 1.4.1 2.3 1.8.8.2-3.4 2.8 2.2.3 2.5 1.7 1.2 5.3-.5 2.1 1.1c0 0-1.3 2.3 1.5 2.3l4.4 1.9 1.6 1 .8 1.8 2.1 2.5 1.6 1.2 1.6-1.1h2.3l1-1 1.9 1.6 1.9-1.6-1.1-1.7-1.6-.9-1.7-1.6 2.3-1.2 1.7-1.2 1.1-.8 1.2-1.1 2.9-.5 1.3 1.4 2.5-2.2 1.3.5.8 2.4 1.9-1.6.8-3.2-1.1-1.6 1.3-2.3-.1-1.9-.3-1.5.7-.9-.6-4.1.8-2 .3-3.5c0 0-4.7-7.5-3.6-17.7l2.2-1.5 1 .5 4-3.3 2 .5.6-3.7-2.5-2.8c0 0 .4-.8-.2-2.5.0.0.8-.8 1.6.3l.4.6c0 0 .9 2.4 2.7.8l1.2-1.1.4 1.4 1.8.1.3-1.3-.5-2.6-1.5-1.8.8-2.7-.6-6.8c0 0-1-2.6-6.2-4.7.0.0-.5-1.5-1.3-1.7l.2-.7.8-.8c0 0 1-.7.0-1.5l-2.7-3.3-.7-3.5c0 0 2.6-1.1.3-3.3l.3-1.4 1.5-2.1-.2-1.9-1.7-2.6c0 0 .7-2.7-1.8-1.1l-.8.9.1.8-.6.4-2.6-.6-.8-.8-1.7-6.4 1 .8v-1.5H122l-1.1-3.1c0 0 .7-3.3-1.3-1.6l-1.3.1-1.9 1.2-.7-1.5.3-1.9-.7-.5-.8 1.1-1.7.4-1.5-2.6h-1.6l-.5-.7-1.3 1h-1.8l-1.1 1.8c0 0 1.3.8.3 1.4l.5.5c0 0 2.5-2.1 2 .7l.5 1.2-5.1 3.2-1.8.5-3.2.1c0 0 .3 2-3.4 3.1l-1.2 1.3-1.3 1.6-1.3 1.2-1.2 1.8-.3.6-1.1.1-1.3-1.3.9-1 .7-.9-.4-1.6c0 0 3.2.0.9-2.2l-3.9-1.6-1.3-1.5-.2-.8-.3-1h-1.8l-.1 1.7-.8 1.3h-1.5l-.5-1.4-2.1-.6-.4-.2-.1 1.9.2 1.9.8 2.1 1 1.9-.3 1.2-.3 1.6-.2 1.3-.8 1.6-.1 1.2-.4 1.3-1 1.3-1 1.4-.3 1.6-1 1.8-.9 2.7-1.9 4.4-1 1.3L67.6 311.7z"/></g><g id="bayern"><path id="Bayern_1_" class="st0" d="M98.3 280l3.2-.1 1.8-.5 5.1-3.2-.5-1.2c.6-2.8-2-.7-2-.7l-.5-.5c.9-.6-.3-1.4-.3-1.4l1.1-1.8h1.8l1.3-1 .5.7h1.6l1.5 2.6 1.7-.4.8-1.1.7.5-.3 1.9.7 1.5 1.9-1.2 1.3-.1c1.9-1.7 1.3 1.6 1.3 1.6l1.1 3.1h.9v1.5l-1-.8 1.7 6.4.8.8 2.6.6.6-.4-.1-.8.8-.9c2.4-1.5 1.8 1.1 1.8 1.1l1.7 2.6.2 1.9-1.5 2.1-.3 1.4c2.3 2.2-.3 3.3-.3 3.3l.7 3.5 2.7 3.3c1 .8.0 1.5.0 1.5l-.8.8-.2.7c.8.2 1.3 1.7 1.3 1.7 5.2 2 6.2 4.7 6.2 4.7l.6 6.8-.8 2.7 1.5 1.8.5 2.6-.3 1.3-1.8-.1-.4-1.4-1.2 1.1c-1.8 1.7-2.7-.8-2.7-.8l-.4-.6c-.8-1-1.6-.3-1.6-.3.6 1.7.2 2.5.2 2.5l2.5 2.8-.6 3.7-2-.5-4 3.3-1-.5-2.2 1.5c-1.1 10.2 3.6 17.7 3.6 17.7l-.3 3.5-.8 2 .6 4.1-.7.9.3 1.5.1 1.9-1.3 2.3 1.1 1.6-.8 3.2-1.9 1.6-.8-2.4-1.3-.5-2.5 2.2-1.3-1.4-2.9.5-1.2 1.1-1.1.8-1.7 1.2-2.3 1.2 1.7 1.6 1.6.9 2-1.8 3.8 1.3 2.4 1.2-.2 2.3 3.8.1.9 2.3-.6 2.2 1.9 1.9 2.6-.3-1.3 2.6.3 1.8 1.8.1 2.2-.9 2.3-2.8 2.2-2.1 1.6-2.4-.7-2.2.1-2.9.4-2.9.2.3 2.5 3.8 1.3-.7 1-.7 1.5.2 1.2.5 3 2 4-1.3.7.7-.2 1.3 1 1.7 1.7 1.7.8.2 1.5.2 2.7.2h2l2-.8c0 0 3.5 2.5 3.8.0l2.2.2-1.3-1.7 2-2.7 3.8-.5 1.5-3 13.9-2.2 2.5.5 2.5.3 1.7-.2.2-3V378l2.3-2.7.7 2.7 1.3 1 1.5-.2 2.2-.7h1.3l.8 1.7 1.3 1.2 1.7-.8 1.3-1c0 0 4.8-1.2 7.2 1.2 2.3 2.3 1.3.3.3 3.2-1 2.8-.8 2.2-.8 2.2l1.7.7 1.7 1.7 2.3.7 1.5 1.2h1l-.2-3.5.8-3.8.2-1.7-1.2-.8v-1.8l-1.3.7-1.3.3h-1.2l-.7-1.2.3-2 1-1.7 1.2-1.3v-2.8l-1-.8-1-2.8-2-1.8-1.7-1.8-1.5-1-1.5-1.2.3-1.2 1-1.5 1.7-1.8 1.8-1.8.5-1.5 2.5-.3 2.5-1.3 2.2-1.5 2.5-1.7 2.7-.8h2.7l2.8-4.7.8-1.8.3-2.5 2-4.2 2.5.5 1.8 1.2 2.8 1.2.8-2.5 1.3-2.2.5-2.2v-3-2.5l-2-4.2-.7-1.8-2.3-.8-2.7-2.5-1.5-2-1.2 2.2-1.7-.7-2.5-.3-.5-4-3.5-3.5-1.8-.7-1.2-1.2-1.7-2.8-1.7-1.8L228 299l-1-2.7-1.3-.5-2.3.7-2.2-.5-1.3-.7L219 294l-.3-1.7-1-1-1.3-1.5-.7-3.8-.2-.8-.7.2-1.3-.8-1.2-1.7-1-1.2c0 0 0-3.3-2.7-5-2.7-1.7 1-4.8.7-4.7-.3.2.7-2.8.7-2.8l1.2-1.8v-1.5l-2-2.2-3.3-2.3-3.5-3-1.7-2.2-.7-2-.2-2.2-1.2-2.2-1-2.8-.8-2.5-3-2.7-.3-1.5-1.7-1.1-.4-.7.5-.5 1-.6.2-.8.2-.7-.6-.5-.5.5-1.4.4-.1 1.3-1.5 1.7-2.3-1.2h-2.7c0 0-.9.4-1 1.5h-1.3l-1.3-.8-.8.4-.7.8-.8-.5-.4-.3-.1-.8-.5-.2v-.9l-.9.1c0 0-2 .6-1.1-1.5l.5-.8v-.8l-.5-1.2-1.6-.5-1.1.1-.8.9-.5.6-.5.6-1 .1-.1 1.7.2 1.5.4 1.5v3.6l-2.6 2.5-.3.9h-.5l-.1-.5h-1.3l-.2-1.5.9-1c0 0 .5-.7-.6-1.4h-.5v-.6h-1.1v.7l-1.3.6-.5-.7-.7.6-1.5-.8v-.5c0 0-.8-1-2-.3l-1-.8-.3.5-.5-.2-.5-.2-.8.6h-.5l-.4-.5-2.1 1.2.8.6v.9l2 1.3 1.1.6.7.5.4.7v.9L157 248l-.9-.5-1.2-.6c0 0-2-.2-1.7 1.4.0.0.5 1.7-.8.7l-1.3-.3-1.4-1.4c0 0-.8-.8.1-1.9v-2.6l-1.3-1.4-1.5 1.1-.7-.5-.1-1-1.3-.6c0 0 .1-1.7-1.1-.8l-1.2-.2.6-.9-.6-.5-1.5-1.2-.2-.8-.4-.8-.8-.1-.6-.4 1.8-1.2-.9-.6-1.2-.6-1-.5-1.2-.5h-1.5l-1.2.2-.8.6-.3.4-.6-.9-.1 1.8-.3 1c0 0-1 5.5-5.6 5.3l-1.2.1-1.2-.5-1.1-.7-.7 3.5-.2 2.6-2.3 2.2-.3 2-4.6 2.5-.8 3.3-3.8-.8-1.8-1.7h-3.8l-2.3.5c0 0-1.5-.8-4.1.0l-2.4 1c0 0-1.4.4-.1 1.2l1.7 2.4.3.7-1.2 2 1.1 9.7.9.8-.2 4-2.1 2.4 1.1 1.9L98.3 280"/></g><g id="sachsen-anhalt"><path id="Sachsen_1_" class="st0" d="M201.7 203.7l-.9.2-1.3-1.1-.3-2.8-.9-2.3v-3.6l-1-1.5c0 0 3.8-.6-.1-7.3l1.8-1.5v-2.6c0 0 .6-2.9 3.8-2.1l.6-.9 1.9-.1 1 .1 1.5-1 1.9-.1 1-1.5 1.6.3c0 0 .5 1.5 1.9-.6 1.4-2.1.8-1.1 2.5-.5 1.8.6 1.8-1.8 3.1-2l2.4.9 1.1.8 2-1h1.3 2.5l.8-.6v-1.3l1-1.3.8-.9-.1-1.9-2.8-5.6-2.5 1v-2.4H224l-.8-1.5-3.9.5v-1.6h-3.3l-1 1.5-2.5-1.4-.9-1.9-1.8.5-2.5-.4-2-2.3-.8-1.5-2.8-2.3-.6-3 .1-2.4.1-4.5 1.1-2.9-.1-3.8.6-3.5-5.3-1.9.6-3.9 1.8-2 .1-2.4-.6-2.1.6-3.3.1-2.5-1.4-1.9-3.3.3-1.3-1.1h-2.5l-1.3-1.4h-2.9l.4-2-2.4-1.3-.8-1.9-3.1-.6-2.8-2.5-2.4-.3-1.6.6 1.1.1.8 5.3-.9 1-.3 2.3-1.6 1.2-4.2 1.6-4.3-2.1-3.8 1-1.3 1-1.7 1.2-1.4.7c-3.1.4-2.2 1.3-2.2 1.3 2.3 2.4 2.6 5.5 2.6 5.5l1 1.1 1.5 1.1 1.2.6.5.8-.8 3.6.7 1.4-.4 3.9 2.4 2.6-1.6 2.1 1.6 2.2-.9.9 1.6 2.8-1.4 1.7 1.3 1.9-2.3 2.3-.9 1.3-.4 1.1-2.4.6-3.3.4-2.3-.1-.6 1-.6.9c-5.4 1.6-.6 3-.6 3l.7 3-.4 1-.9 1.9-.4 1.5-.1 1.6.5 1.4 1.6 2.6.7.9-.3.6.2 1.1.4 1.2 1.7.3.8.5.8.7c0 0 3.8-.5 1.9 2.3l-.3 1.3 1.6 1.7.1 1.2.2 2.8.8.8 11 1.5 3.2 3.1c0 0 3 2-.5 3.4.0.0-4.2 1.9.9 4.5l.9.3-.8 3.1 2.4.3 1.1.1 1.6.2.9.5 1.5-.2.5 1 .9.3.7 1.2 3.3-.4 2.8 1.2.1 1.2 1.3.6 1.2.5v.8l1.3.8.7.4 3.6-.6.2 1.6h1.3l.3-3 .9-1-.5-.8C201.8 205.7 199.9 204.7 201.7 203.7"/></g><g id="rheinland-pfalz"><path id="Rheinland-Pfalz_1_" class="st0" d="M64 234.5c0 0-1.9 2 .2 3l1.3-.1 1.4 2.4.3 1.9.9 1.4-.3.9-1.8-.1-.1 2.1-1.4.1-.7-.8-1.9 1.6-2.1 1.4v1.3l1.3.4.5.8c0 0 .4 2.3-1.5.9.0.0-1.9-1.9-2.3.8l-.3.9 2.7 3.6 1.4.7 1.7-.8 3.6-1.1c0 0 5.8-2.5 6.7 2.6l1.3 2.9.8 2.3.1 2.3.3 2.7.4 1 1.5.6 1.3.5c0 0 1 1.1-1.2 1.7l-1.6.5-.8 1.1-.4 1 .1 2.3 1.3 1.4-.1 1.9.2 1.9.8 2.1 1 1.9-.3 1.2-.3 1.6-.2 1.3-.8 1.6-.1 1.2-.4 1.3-1 1.3-1 1.4-.3 1.6-1 1.8-.9 2.7-1.9 4.4-1 1.3-2.5-1.4-3.6-.9-5.6-2.1-8.5-2.1-1.5-1.3-1.8-.9-1.1-1.7c-2.4-4.3-6.4-.8-6.4-.8l-.7.3-1.3.5-2.8-.6c-1.1-1-3.6-.3-3.6-.3l-.8-2.6-1.7-.6-2.5-1.8c-1.9-.7-2.6 1.4-2.6 1.4-.1 1.9-1.8 1.2-1.8 1.2l-1.1-.4-.3-2.3-4.6-5.4.9-2.2-1.4-3.7-3.2-2.8-2-1.1L8.3 277 8 276.3l1.3-2.3.7-1.6 1.1-1.2L13 268c2-3.9-1-5.5-1-5.5L7 259l-1.8-1.9-1.4-4.2.3-3.5v-5.5l-.6-1.5.2-2.6 1.2-1.4 2.6.3 2.1-2.6 1.1-.4 1.5.1 1.3.7 1.6 1.1 1.4.1 1.5-.8 2-3.2 2.4-1.8 3.9-1.9 1.4-.6 8.4-5.5 3.9-.1 3.4-2.3.8-.6 2.4-2.3 4.6-1.5 3.9-2.7 1.2-3.4 2.4-.4 1.3.9 2.9 2.2 1.1 1.7 1.1 1.8.4 2.6-.3.4.6.4 1.8 1.3.8 2.5.1 1.1 1.4 1.4-1.7 2.8h-2.9l-1.6 2.4.9 1.8L64 234.5z"/></g><g id="saarland"><path id="Saarbrücken_1_" class="st0" d="M37.4 298.3l-1.3.5-2.8-.6c-1.1-1-3.6-.3-3.6-.3l-.8-2.6-1.7-.6-2.5-1.8c-1.9-.7-2.6 1.4-2.6 1.4-.1 1.9-1.8 1.2-1.8 1.2l-1.1-.4-.3-2.3-4.6-5.4.9-2.2-1.4-3.7-3.2-2.8-2-1.1L8.3 277l.5-.4 1.3-.3 1 .2 1.5.5 2.2.3 1.8-.4h.8l1.3.3 1.3-.9 2.1-.9.8-.4h1.1l1-.9h1.9l.8-1 3.1.1 1.3 1 .8.3 1.8.3.7 1.1.4.4h2.1l.5 1.4.3 1.3-.4 1.3-.4.5 1.2.8-.8.8-1.5.3 1 1.3 1.2 1.8 1 .4 1.2.3.6.3v1.7l-.5 1.6-.9.9-1.5 1.3-.3.8.3 1.3-.4 1.8-.6 1.9L37.4 298.3z"/></g><g id="nordrhein-westfalen"><path id="Nordrhein-Westfalen_1_" class="st0" d="M41.2 141.3l-1 1.1-.7 1-2.4.9-.6 1.6-1.8.9-1.5.8-.8.6v1.3l1.6.7.9 1.3-.5 2.1.1 1.6-.9 1.2-.9 1.3-1.4.7h-3.1l-1.4-2.3-2.6.8-1.3.5-2.4.1-.7 1.1-.6.7-2.6-1.1-.1-.7-3.4-1.4-.7-.9-.7.1-1.8 2.3-3.1.9-.1 1.2.4 1.1-.3 1.4 1.8 1.8 1.3 2 1.3 2.4 1.1 2.3 1.8 4 .1 3.4v2.7l-1.4 3.6-.9 1.9-.6 1-1.7 1.3L9 188.7c0 0 3.3-.8 1.9 1.1-1.4 1.8-.4 1.8-.4 1.8l-.9 1.3-1.1.9-1.3 1L6 195.4l-1.1.9-.8 1.8-2.7-1.6L1 197.6l.7 1.8-.1.8 1.6.3 1.3.9.6 1.6 1 2.3.3 1.3-.8 1.4-1.2.8-.8 1.5-.2 1 .6 1.3 2.4-.1 1.3 2.9 1.2 1.9 1.7.6 1.3.3-3.4 3.6.9 2.1c0 0 4.9.2 4.4 4.6l1.4 3.5c0 0 1.5 2.7-1.3 1.9l-2.4-.1-.9 1.4-.7 1 1.1-.4 1.5.1 1.3.7 1.6 1.1 1.4.1 1.5-.8 2-3.2 2.4-1.8 3.9-1.9 1.4-.6 8.4-5.5 3.9-.1 3.4-2.3.8-.6 2.4-2.3 4.6-1.5 3.9-2.7 1.2-3.4 2.4-.4 1.3.9 2.9 2.2 1.1 1.7 1.1 1.8.4 2.6-.3.4.6.4 2-.5 1.1.3 1.4-.5.8-1.1-.6-1-.5-.5c0 0-1.5-1.7 1.4-2.2l1.8-1.1 1.2-.7c0 0 .7-2.3 2.3-.3l2-.8 1.6-2.1 1.5-2.7 2.1-2.5v-2.2l.7-1.5c0 0 1.8-.8 3 .2 1.2 1 .8-.2.8-.2l.3-1.6 1-1.4.7-.7.3-1.2v-1.5l.1-1.1-1-.8-1.4.8-1.5-1.3v-1l2.2-1.7 4.3-1.6 3.1-1.2.1-2.4 1.4-1.3.7-.2.9-.7h1.7l1.2 1.9.3 2.8 1.2-1.5h1.3l1.1-.3 1.6-.9.6-1.5 2.1-2.8.3-2.6 2.1-1.6-1.1-1.6.8-1.8.5-1.9.2-2.1 1-1.9-.3-2.8-2.3-.5.1-2.4-.9-.8-1.1-1.8-3.6-1.1.4-3.3-1.1-4.3-3.5-.4c-1.3-.3-.6-1-.6-1 2-1.8 1.1-3.7 1.1-3.7l-1.4-2.5-.8-1.2 5.3-6-.3-1.4-.1-1.1.7-1c0 0 .9-1.3.0-.9-.9.3-1.4-.7-1.4-.7l-1.3.8-1.6 1-.3.5-1.3 2.1-1.6 1.3-1.6-.1-.8-.4-1.1.7c-1.5.4-2-1.2-2-1.2l-.3-5.5-1.3-1-2.7 1.3-2.9-.4-.1.8c-.6 2.8-3.3 2.3-3.3 2.3l-1.1-.3-.9-.1-.1.4.6 1-.2 2.3 5.1 2.3-.5 4.2-.3.7c-1.1 1-.2 2.3-.2 2.3l.8.8.7.8.3 1.1-.6.6-1.3.4-2.8 1.6-1.8.1-.8-1.4-4.4 3-1.3.2h-1.3l-.9-.4-.8-.3-.5.3h-1.1l-1-.1-.5-.4v-2l.4-.4 1-.3.9-.3.6-.5-.1-.8-.6-.8-.7-1.5-.5-1-.6-1.4-.1-1.3.4-1.6c.1-.7.8-.9.8-.9 2 .3 1-1.2 1-1.2l-.5-1.2-.3-.4-1-.6-2.8-.2-1.1-.4-.7-1.2-.4-1.1.1-.5-.5-.8c-3.6-2.2-4.6 1.1-4.6 1.1l-.2 3-1.8 1.3-1.4.7-1 1-1.3 1-1.3.3-1.9.3-1.2.2-2.3.1-2 1.3-2.1-.4L41.2 141.3z"/></g><g id="bremen"><path id="Bremen1" class="st0" d="M96.6 101.6l.9.3 2.3.2 1.3-.3.8-.7-.7-1.6v-1.2l.4-1.5c.5-1.6-1.2-1.2-1.2-1.2l-2 .4-1.1-1.3-2-.1-1-.9-3.3-.3-3.9-2.1 2.4 2.8.4.8.8.8 1 1 2 1.7v.4l.3.8-.5.5.2 1.2 1.6.2L96.6 101.6z"/></g><g id="thueringen"><path id="Thüringen_1_" class="st0" d="M153.5 173.9l-1.6.4-.5 2.2c1.4 3.6-2.1 1.9-2.1 1.9l-1.5-.4-1.8-.6-1.9-1.1-2.1.1-.3 1.4-.5.7.4.6-.9 1.3-1.3 1.3-1.3.8-1.6.4-.6.9-1.1 1.1-1.4.8-2.7-.5-.8 1.7-2.5.8.7.6-.2.4.6.8.5 2.8 2.8.8.2 1.9.6.8 4.1 1.3.7 4.1-1.2-1.1-1.9.3 1.9 1.7-1.2 3.2 1.8-.1.2 2.3-5.2.1-.3 1.3.3 1.7-2.8.5.6.8c3.6 1.2 1.8 4.1 1.8 4.1l1 .7-2.6.7-1.5 6.6-.9 1.3-.3 1.6 1.1.4 1-.1v-1.2c2.1-1.5 3.8-.4 3.8-.4l.4.9v1.3l-.9 1.4.1 1.7-.2 1.2.6.9.3-.4.8-.6 1.2-.2h1.5l1.2.5 1 .5 1.2.6.9.6-1.8 1.2.6.4.8.1.4.8.2.8 1.5 1.2.6.5-.6.9 1.2.2c1.2-.9 1.1.8 1.1.8l1.3.6.1 1 .7.5 1.5-1.1 1.3 1.4v2.6c-.9 1.1-.1 1.9-.1 1.9l1.4 1.4 1.3.3c1.3 1 .8-.7.8-.7-.3-1.6 1.7-1.4 1.7-1.4l1.2.6.9.5.3-.6v-.9l-.4-.7-.7-.5-1.1-.6-2-1.3v-.9l-.8-.6 2.1-1.2.4.5h.5l.8-.6.5.2.5.2.3-.5 1 .8c1.3-.8 2 .3 2 .3v.5l1.5.8.7-.6.5.7 1.3-.6v-.7h1.1v.6h.5c1.1.7.6 1.4.6 1.4l-.9 1 .2 1.5h1.3l.1.5h.5l.3-.9 2.6-2.5v-3.6l-.4-1.5-.2-1.5.1-1.7 1-.1.5-.6.5-.6.8-.9 1.1-.1 1.6.5.5 1.2v.8l-.5.8c-.9 2.1 1.1 1.5 1.1 1.5l.9-.1v.9l.5.2.1.8.4.3.8.5.7-.8.8-.4 1.3.8h1.3c.1-1.1 1-1.5 1-1.5h2.7l2.3 1.2 1.5-1.7.1-1.3 1.4-.4.5-.5-.1-.7.1-1-.7-1.3-1.3-1-.8-.8.5-1.3 1.2-1.2.8.1 1.9-1.8v1.1l.4.5v.9c-1.8 3.2 1.6 1.8 1.6 1.8l1.4-.9.8.3.7-3.3 1.4.6 1.7-1.3.7-.8.5-1.5-1.3-.9-.3-1.9-.9.3.1-1.7 1.8-.3v-.8l-1.9-.2v-.9l1.2-.2.8-.3 1.1.9.5-.5.3-1.6-.5-.3.6-1.1 1.6-.1.5.8c1.1 2.7 1.3-.3 1.3-.3l1.3-2.4 3.3-.2c1.6 1.3 1-.7 1-.7l-.8-1.1-.1-3.1-1.8.4c-.1-1.5-1.3-1.8-1.3-1.8l-1.3-.1.5-1.7-1.2-.1-.3-1.2-1.7.1v.7l-1.1-.1c-1.9-2.8-3.4.3-3.4.3-1.8.9.2 2 .2 2l.5.8-.9 1-.3 3h-1.3l-.2-1.6-3.6.6-.7-.4-1.3-.8v-.8l-1.2-.5-1.3-.6-.1-1.2-2.8-1.2-3.3.4-.7-1.2-.9-.3-.5-1-1.5.2-.9-.5-1.6-.2-1.1-.1-2.4-.3.8-3.1-.9-.3c-5.1-2.6-.9-4.5-.9-4.5 3.5-1.4.5-3.4.5-3.4l-3.2-3.1-11-1.5-.8-.8-.2-2.8-.1-1.2-1.6-1.7.3-1.3c1.9-2.8-1.9-2.3-1.9-2.3l-.8-.7-.8-.5L153.5 173.9z"/></g><g id="hessen"><path id="Hessen_1_" class="st0" d="M119.6 181.4l-.1 1.1-.5.6 1.4 1.8.1 1.4-.7 1.3-1.3 1.4-.6 1.2v1.6l1.9 1.3 1.5.4 1.6-.1.4-1.1c0 0 1.3-1.3-.8-1.5.0.0-1.6.4-.4-1.3l1.3-.9 1.5-1.6 2.6.5.7.6-.2.4.6.8.5 2.8 2.8.8.2 1.9.6.8 4.1 1.3.7 4.1-1.2-1.1-1.9.3 1.9 1.7-1.2 3.2 1.8-.1.2 2.3-5.2.1-.3 1.3.3 1.7-2.8.5.6.8c3.6 1.2 1.8 4.1 1.8 4.1l1 .7-2.6.7-1.5 6.6-.9 1.3-.3 1.6 1.1.4 1-.1v-1.2c2.1-1.5 3.8-.4 3.8-.4l.4.9v1.3l-.9 1.4.1 1.7-.2 1.2-.1 1.8-.3 1c0 0-1 5.5-5.6 5.3l-1.2.1-1.2-.5-1.1-.7-.7 3.5-.2 2.6-2.3 2.2-.3 2-4.6 2.5-.8 3.3-3.8-.8-1.8-1.7h-3.8l-2.3.5c0 0-1.5-.8-4.1.0l-2.4 1c0 0-1.4.4-.1 1.2l1.7 2.4.3.7-1.2 2 1.1 9.7.9.8-.2 4-2.1 2.4 1.1 1.9.8 1.1c0 0 .3 2-3.4 3.1l-1.2 1.3-1.3 1.6-1.3 1.2-1.2 1.8-.3.6-1.1.1-1.3-1.3.9-1 .7-.9-.4-1.6c0 0 3.2.0.9-2.2l-3.9-1.6-1.3-1.5-.2-.8-.3-1h-1.8l-.1 1.7-.8 1.3h-1.5l-.5-1.4-2.1-.6-.4-.2-1.3-1.4-.1-2.3.4-1 .8-1.1 1.6-.5c2.2-.6 1.2-1.7 1.2-1.7l-1.3-.5-1.5-.6-.4-1-.3-2.7-.1-2.3-.8-2.3-1.3-2.9c-.9-5.1-6.7-2.6-6.7-2.6l-3.6 1.1-1.7.8-1.4-.7-2.7-3.6.3-.9c.4-2.7 2.3-.8 2.3-.8 1.9 1.4 1.5-.9 1.5-.9l-.5-.8-1.3-.4v-1.3l2.1-1.4 1.9-1.6.7.8 1.4-.1.1-2.1 1.8.1.3-.9-.9-1.4-.3-1.9-1.4-2.4-1.3.1c-2.1-1-.2-3-.2-3l.8-.9-.9-1.8 1.6-2.4h2.9l1.7-2.8-1.4-1.4-.1-1.1-.8-2.5-1.8-1.3 2-.5 1.1.3 1.4-.5.8-1.1-.6-1-.5-.5c0 0-1.5-1.7 1.4-2.2l1.8-1.1 1.2-.7c0 0 .7-2.3 2.3-.3l2-.8 1.6-2.1 1.5-2.7 2.1-2.5v-2.2l.7-1.5c0 0 1.8-.8 3 .2 1.2 1 .8-.2.8-.2l.3-1.6 1-1.4.7-.7.3-1.2v-1.5l.1-1.1-1-.8-1.4.8-1.5-1.3v-1l2.2-1.7 4.3-1.6 3.1-1.2.1-2.4 1.4-1.3.7-.2.9-.7h1.7l1.2 1.9.3 2.8 1.2-1.5h1.3l1.1-.3 1.6-.9.6-1.5 2.1-2.8.3-2.6 2.1-1.6 1.8-.7 3.5.1 1.4.3 1.6 1.8.4 1.2.1 1.5L119.6 181.4z"/></g><g id="brandenburg"><path id="Brandenburg_1_" class="st0" d="M173 97.5l3.1-.5-.4-.8c0 0 4-1.8 5.9-3.9l4.5.4.4-1.6 2.3 1.4c0 0 3.9-.5 4.3-5.8l.3-1.8c0 0 .5-1.4 1.3.0l1.4 2.5 4.6.1 3.3 1.5 2.4 2.6 6.4 3.6 6 1 2.3 1.3 3.8.5.5 1c0 0 1-1.5 2.1-1.3l1.3-1.8 3.1-1.4 1.6 1 1.4-.1.9-2.4 2.4-.1.5 1.9 3-1.8 1.9-3.8-.3-1.8 2.3-2.5 1.9-1.9 2.8-2.5-.1-2.4 1.6 2.3 1.3.4.1 1.5 1.3.6v1.6l1.4-.4h1.5l1.1.5 2.3-.8 1.9.3 2.1-.6.1 2.6-2.6 2.5c0 0-4 4.5.0 3.1l3 .4.6-1.9 2-1.5.8-.1 1 1.5 1.3 1.2-2 4.7v2l.8.3-1 2.8-1 2-2 3-2.8 2-1.2 2.5v1.8l1.2 3.7 1.8 2.2 3.3 1.3 1.5 2.3 1.3 2 2 2 2.2 1.7 1.8 1-.2 6-1.2 2-.5 2.2 1.5 3.7 1.8 2.5 1.7 2.5v2.5 2.2l1.3 1.7 2.5.8v1.2l-.3 3.3v3.3l-.3 2.3-1.2 1.2-1.2 2.3v2.2l1.5 3 1.5 1.8-1.9-.9-5.1.4h-3.1l-3 1.3-2 1.3-2 1-4-.8c-3.8-2.1-4.9 2.4-4.9 2.4l.1 3.3-1.5.9-2.5 2.8c-2 2.1-2.9-.4-2.9-.4-6.8 2.3-7.6-.5-7.6-.5l-1.8 1.1-1.4-3.9-1 .5h-2.8l-1.6 1-1 2.4-.8-2.9-.9-4.8-1.8-1.6-.8-1.9-1.6-1.4-2.6-1.8h1.3 2.5l.8-.6v-1.3l1-1.3.8-.9-.1-1.9-2.8-5.6-2.5 1v-2.4H224l-.8-1.5-3.9.5v-1.6h-3.3l-1 1.5-2.5-1.4-.9-1.9-1.8.5-2.5-.4-2-2.3-.8-1.5-2.8-2.3-.6-3 .1-2.4.1-4.5 1.1-2.9-.1-3.8.6-3.5-5.3-1.9.6-3.9 1.8-2 .1-2.4-.6-2.1.6-3.3.1-2.5-1.4-1.9-3.3.3-1.3-1.1h-2.5l-1.3-1.4h-2.9l.4-2-2.4-1.3-.8-1.9-3.1-.6-2.8-2.5-2.4-.3-1.6.6-1.1-.4-1.3-.9L173 97.5"/></g><g id="berlin"><path id="Berlin_1_" class="st0" d="M226.2 118.8h1.5l.6-1.3.8-.3 1.3-1.5 1.4 1.1 1 .3 1-.9 1.4-.1.9-1.5 1.3.4v2.6l1.1 1.3 1.5 1.5 1.6 1-.9 2.5 2.3.5 1.9.5v1.5l-1.5 1.4-.8 1.4-.6 1.3-.6-1.4-.8-.3-.5-.5-1 .1-.8-.5-1.4.1-.9-1-1.1.6c0 0 .8 3.5-1.3.8l-1-.5-.9.3-1 .1-1-.5-.8-.4-1.3.6-.6.5-1.3-.1-.9-.5v-2l.1-1 1.9-2.1-1.4-.4.3-1.5L226.2 118.8z"/></g><g id="sachsen_1_"><path id="Sachsen_3_" class="st0" d="M192.8 235.2l.6.5-.2.7-.2.8-1 .6-.5.5.4.7 1.7 1.1.3 1.5 3 2.7.8 2.5.3-2.3.5-1.7h1.5l1.5 1.2 2.2 1.7v1.7l.7 1.5 1.2 2.2 1-2.8 1-3.8 2.2-3.2 2.3-1.7 2.2-.8 2 .7 1.5.2 5.7-3.2 1.7 2.2 1 .2.5-1 .2-2.7 3.5-1.5 1.3-.3 3.5-4 2.3.3.7.3 1.2-.8-.2-1.5.7-2 1.5.2 1.5.2 1.2.3 1-1.8 1.2-1.8 6.5-1.3 3-.2-.2-1.5 1.5-1.7 2-.8 4-1.2 2.5-1 1.7-1 1.8-1.3 1.5.5 1.2-1.2-2.3-.3c0 0 .2-2.3-2.5-3.5-2.7-1.2 2-2.8 2-2.8l3.8 1 2 .5 2.2 1.2 2.2 1.2v2.2l.2 1 1.2-1.5 1-.7 1.7 1.2-.2 1.2-1.2 1.2v1.2l1.3.8.8 1 1.5-1 1.7-.8 4.2-.2 1.8-2.2 1.3-3.2v-2.7l.5-5.3.2-4.5-1.3-1.7-.7-1.3v-1.3-2l-.5-1.8-1.2-1.2-2.7-1.2-2.3-.8-1.7-1.2-.8-3.3h1.7l.3-.8-2.2-4-1.9-.9-5.1.4h-3.1l-3 1.3-2 1.3-2 1-4-.8c-3.8-2.1-4.9 2.4-4.9 2.4l.1 3.3-1.5.9-2.5 2.8c-2 2.1-2.9-.4-2.9-.4-6.8 2.3-7.6-.5-7.6-.5l-1.8 1.1-1.4-3.9-1 .5h-2.8l-1.6 1-1 2.4-.8-2.9-.9-4.8-1.8-1.6-.8-1.9-1.6-1.4-2.6-1.8-2 1-1.1-.8-2.4-.9c-1.4.3-1.4 2.6-3.1 2-1.8-.6-1.1-1.6-2.5.5-1.4 2.1-1.9.6-1.9.6l-1.6-.3-1 1.5-1.9.1-1.5 1-1-.1-1.9.1-.6.9c-3.1-.8-3.8 2.1-3.8 2.1v2.6l-1.8 1.5c3.9 6.6.1 7.3.1 7.3l1 1.5v3.6l.9 2.3.3 2.8 1.3 1.1.9-.2c0 0 1.5-3.2 3.4-.3l1.1.1v-.7l1.7-.1.3 1.2 1.2.1-.5 1.7 1.3.1c0 0 1.2.3 1.3 1.8l1.8-.4.1 3.1.8 1.1c0 0 .6 2-1 .7l-3.3.2-1.3 2.4c0 0-.3 3-1.3.3l-.5-.8-1.6.1-.6 1.1.5.3-.3 1.6-.5.5-1.1-.9-.8.3-1.2.2v.9l1.9.2v.8l-1.8.3-.1 1.7.9-.3.3 1.9 1.3.9-.5 1.5-.7.8-1.7 1.3-1.4-.6-.7 3.3-.8-.3-1.4.9c0 0-3.3 1.3-1.6-1.8v-.9l-.4-.5v-1.1l-1.9 1.8-.8-.1-1.2 1.2-.5 1.3.8.8 1.3 1 .7 1.3-.1 1L192.8 235.2"/></g></svg>