<svg id="Ebene_1" xmlns="http://www.w3.org/2000/svg" xmlns:xlink="http://www.w3.org/1999/xlink" viewBox="0 0 50 42" style="enable-background:new 0 0 50 42"><style>.st0{fill:url(#SVGID_1_)}.st1{fill:#fff}.st2{fill:url(#SVGID_2_)}</style><g><linearGradient id="SVGID_1_" gradientUnits="userSpaceOnUse" x1="25" y1=".4351" x2="25" y2="41.5649"><stop offset="9003964e-13" style="stop-color:#056bb6"/><stop offset="1" style="stop-color:#318eca"/></linearGradient><circle class="st0" cx="25" cy="21" r="20.56"/><circle class="st1" cx="25" cy="21" r="10.62"/><g><linearGradient id="SVGID_2_" gradientUnits="userSpaceOnUse" x1="25" y1="14.186" x2="25" y2="27.8145"><stop offset="9003964e-13" style="stop-color:#056bb6"/><stop offset="1" style="stop-color:#318eca"/></linearGradient><path class="st2" d="M2.42 27.81c-.99.0-1.79-.8-1.79-1.79V15.98c0-.99.8-1.79 1.79-1.79h45.17c.99.0 1.79.8 1.79 1.79v10.04c0 .99-.8 1.79-1.79 1.79H2.42z"/><path class="st1" d="M47.58 14.56c.78.0 1.42.64 1.42 1.42v10.04c0 .78-.64 1.42-1.42 1.42H2.42C1.64 27.44 1 26.8 1 26.02V15.98c0-.78.64-1.42 1.42-1.42H47.58m0-.75H2.42c-1.2.0-2.17.97-2.17 2.17v10.04c0 1.2.97 2.17 2.17 2.17h45.17c1.2.0 2.17-.97 2.17-2.17V15.98C49.75 14.78 48.78 13.81 47.58 13.81v0z"/></g><g><path class="st1" d="M13.42 21.55c-.15.07-.31.12-.49.15-.18.03-.33.05-.46.05-.45.0-.84-.05-1.16-.16-.32-.11-.59-.26-.79-.46-.21-.2-.36-.44-.46-.72-.1-.28-.15-.59-.15-.92.0-.28.05-.57.14-.86.09-.29.24-.56.44-.8s.46-.44.77-.6S11.96 17 12.4 17c.9.0 1.58.28 2.04.83.46.55.69 1.35.69 2.39.0.68-.09 1.29-.27 1.81-.18.52-.45.96-.83 1.32-.37.36-.85.63-1.43.81-.58.19-1.27.28-2.06.29-.01-.22-.02-.44-.03-.65-.01-.21-.03-.43-.04-.65.4-.01.76-.04 1.08-.09.32-.05.6-.14.85-.26.24-.12.45-.28.62-.49C13.19 22.11 13.32 21.86 13.42 21.55zM12.65 20.54c.16.0.33-.02.5-.05.17-.03.3-.07.39-.13v-.09c0-.03.0-.06.01-.08.0-.03.01-.05.01-.07-.01-.25-.03-.49-.06-.71-.04-.22-.09-.41-.18-.58-.08-.16-.2-.29-.34-.39-.14-.09-.32-.14-.53-.14-.17.0-.31.04-.44.1-.13.07-.23.16-.3.27s-.13.23-.17.37c-.04.13-.06.26-.06.39.0.38.09.66.28.84C11.93 20.45 12.24 20.54 12.65 20.54z"/><path class="st1" d="M19.35 22.29c0-.2-.05-.38-.14-.54-.09-.16-.25-.29-.47-.39-.22-.1-.52-.18-.9-.24-.38-.06-.85-.08-1.42-.08.08-.65.14-1.31.19-1.98.05-.67.09-1.3.12-1.89h3.93v1.31h-2.62c-.01.25-.03.49-.05.73-.02.23-.04.44-.06.61 1.02.07 1.77.31 2.26.72.49.41.73.98.73 1.7.0.33-.06.65-.18.93-.12.29-.3.53-.53.74-.24.21-.54.37-.9.49-.36.12-.78.18-1.26.18-.19.0-.39-.01-.59-.04-.21-.02-.41-.06-.6-.09-.19-.04-.36-.08-.52-.12-.15-.04-.27-.08-.36-.13l.28-1.29c.17.08.4.15.69.22.29.07.63.11 1.03.11.48.0.83-.1 1.05-.29C19.24 22.78 19.35 22.55 19.35 22.29z"/><path class="st1" d="M23.73 22.84c.01.17.02.29.03.36.0.07.01.13.01.18.0.21-.02.43-.06.66-.04.23-.09.47-.16.71-.07.24-.16.47-.26.71-.1.24-.22.46-.36.68l-1.23-.3c.16-.46.27-.89.33-1.3.06-.4.09-.74.09-1.01.0-.04.0-.1-.01-.16.0-.07-.01-.13-.01-.2.0-.07-.01-.14-.01-.2.0-.06-.01-.1-.01-.13H23.73z"/><path class="st1" d="M27.17 19.8c.45.0.84.06 1.16.18.32.12.58.29.78.5.2.21.35.45.44.73.09.28.14.58.14.89.0.28-.05.57-.15.86-.1.29-.26.56-.46.8-.21.24-.47.43-.79.59-.32.15-.69.23-1.13.23-.87.0-1.54-.28-1.99-.83-.45-.55-.68-1.31-.68-2.28.0-.7.11-1.32.32-1.85.22-.54.53-.99.93-1.36.4-.37.89-.65 1.46-.84.57-.19 1.21-.29 1.92-.3.01.22.03.43.04.63s.03.42.04.64c-.36.01-.69.04-1 .1-.31.06-.59.15-.85.28s-.48.29-.67.49c-.19.2-.33.44-.44.73.15-.07.31-.12.47-.15C26.88 19.82 27.03 19.8 27.17 19.8zM26.97 21.02c-.15.0-.32.01-.49.04-.17.03-.31.07-.41.12.0.03.0.07-.01.13.0.06-.01.1-.01.15.0.25.02.49.05.71.03.22.09.42.18.59.08.17.2.3.34.39.14.09.31.14.52.14.17.0.32-.04.44-.11s.22-.17.3-.28c.08-.11.14-.24.18-.37.04-.14.06-.27.06-.39.0-.36-.09-.63-.27-.82C27.69 21.11 27.39 21.02 26.97 21.02z"/><path class="st1" d="M34.91 19.04c0 .66-.17 1.16-.5 1.51-.33.35-.79.52-1.35.52s-1.02-.17-1.35-.52c-.34-.35-.5-.85-.5-1.51.0-.66.17-1.16.5-1.51.33-.35.79-.52 1.35-.52s1.02.17 1.35.52C34.74 17.88 34.91 18.38 34.91 19.04zM33.72 19.04c0-.36-.06-.61-.19-.77-.13-.16-.29-.24-.48-.24-.2.0-.36.08-.49.24-.12.16-.18.42-.18.77.0.36.06.62.18.78.12.16.28.25.49.25.2.0.36-.08.48-.25C33.66 19.65 33.72 19.39 33.72 19.04zM36.95 17.17h1.46l-4.09 7.26h-1.46L36.95 17.17zM40.08 22.57c0 .66-.17 1.16-.5 1.51-.33.35-.79.52-1.35.52s-1.02-.17-1.35-.52c-.33-.35-.5-.85-.5-1.51.0-.66.17-1.16.5-1.51.34-.35.79-.52 1.35-.52s1.02.17 1.35.52C39.91 21.41 40.08 21.91 40.08 22.57zM38.9 22.57c0-.36-.06-.61-.19-.77s-.29-.24-.48-.24c-.2.0-.37.08-.49.24-.12.16-.18.42-.18.77.0.36.06.62.18.78.12.16.28.25.49.25.2.0.36-.08.48-.25C38.83 23.18 38.9 22.92 38.9 22.57z"/></g><g><path class="st1" d="M13.48 7.98c.01.17.02.39.05.64.03.26.06.53.11.82.04.29.09.58.15.88.06.3.12.57.19.83l1.37-1.33.53.54-2.12 2.05-.37-.39c-.06-.21-.13-.45-.19-.73-.06-.27-.12-.55-.18-.84-.06-.29-.1-.57-.15-.85-.04-.28-.07-.53-.1-.76l-1.21 1.17-.53-.54 2.01-1.95L13.48 7.98z"/><path class="st1" d="M18.16 8.73c-.09.11-.22.24-.38.39-.16.15-.34.29-.54.42-.2.13-.39.21-.56.24-.17.03-.33.02-.48-.03-.15-.05-.28-.14-.41-.26-.13-.12-.25-.27-.36-.45L14.5 7.62l.67-.44.87 1.33c.15.23.29.38.41.45C16.58 9.02 16.72 9 16.88 8.9c.05-.03.1-.07.15-.11.05-.04.1-.08.13-.11l-1.28-1.96.67-.44L18.16 8.73z"/><path class="st1" d="M18.09 3.96c.14-.06.27-.1.4-.12.13-.02.23-.03.31-.03l.13.69c-.08.0-.16.01-.25.02-.08.02-.16.04-.23.07-.09.04-.16.09-.21.14-.05.05-.08.11-.1.17-.01.06-.02.13.0.2.01.07.04.14.07.22l.06.14.91-.4.29.65-.91.4.93 2.12-.74.32-1.29-2.93c-.16-.36-.19-.69-.09-.98C17.48 4.36 17.72 4.13 18.09 3.96z"/><path class="st1" d="M21.81 5.08c-.07.0-.16.0-.26.01s-.2.02-.31.05c-.05.01-.11.03-.17.06-.07.03-.11.05-.15.07l.62 2.23-.78.22L20 4.96c.12-.09.28-.19.45-.28.18-.1.38-.18.61-.25.04-.01.09-.02.15-.03.06-.01.12-.02.18-.03.06-.01.12-.01.19-.02.06.0.12.0.16.01L21.81 5.08z"/><path class="st1" d="M23.14 3.21c.02.16.0.29-.09.39-.08.1-.19.17-.31.19C22.62 3.8 22.5 3.77 22.39 3.7c-.11-.07-.17-.19-.2-.35-.02-.16.0-.29.09-.39.08-.1.19-.17.31-.19.13-.02.25.01.35.08C23.05 2.94 23.12 3.05 23.14 3.21zM23.66 7.08l-.8.12-.46-3 .8-.12L23.66 7.08z"/><path class="st1" d="M24.1 5.5c0-.27.03-.5.1-.71.07-.2.17-.37.3-.51.12-.14.27-.24.43-.31.16-.07.33-.11.5-.11.4-.01.73.12.96.38.24.26.36.64.37 1.16.0.05.0.1.0.16.0.06-.01.11-.01.16l-1.83.03c.02.18.1.32.24.42.14.1.32.15.55.15.15.0.29-.02.43-.05.14-.03.26-.07.35-.11l.12.7c-.04.02-.1.05-.17.07-.07.02-.15.05-.24.06C26.13 7 26.04 7.02 25.94 7.03c-.1.01-.2.02-.3.02-.26.0-.48-.03-.67-.11-.19-.08-.35-.19-.48-.32-.13-.14-.22-.3-.28-.49C24.14 5.93 24.11 5.73 24.1 5.5zM25.99 5.14c0-.07-.02-.14-.04-.21-.02-.07-.05-.13-.1-.18-.04-.05-.1-.1-.16-.13-.06-.03-.14-.05-.24-.05-.09.0-.17.02-.23.05-.06.03-.12.08-.16.13-.04.05-.07.12-.1.19-.02.07-.04.14-.05.22L25.99 5.14z"/><path class="st1" d="M29.74 7.41c-.08.01-.16.01-.26.02-.1.0-.2.0-.3.0-.1-.01-.21-.01-.32-.02-.11-.01-.21-.03-.3-.05-.23-.05-.43-.12-.59-.23-.17-.11-.3-.24-.39-.4-.1-.16-.16-.34-.19-.54-.03-.2-.02-.42.03-.66.05-.24.12-.45.21-.64.1-.18.21-.33.34-.45.13-.11.28-.19.45-.23.17-.04.35-.04.55.0.11.02.21.05.29.09.08.04.16.09.24.15l.27-1.35.82.02L29.74 7.41zM28.24 5.64C28.19 5.9 28.2 6.12 28.28 6.3c.08.18.23.29.44.33.07.01.14.02.2.03s.11.01.15.01l.31-1.53c-.04-.04-.1-.08-.18-.12-.07-.04-.15-.07-.23-.08C28.59 4.86 28.35 5.1 28.24 5.64z"/><path class="st1" d="M30.75 6.26c.1-.25.23-.45.38-.61.15-.16.31-.27.48-.35.17-.07.34-.11.52-.11.18.0.35.03.51.1.37.16.62.4.73.74.11.33.07.74-.13 1.21-.02.05-.04.1-.07.15-.03.05-.05.1-.07.14l-1.69-.71c-.05.17-.03.33.05.48.09.15.24.27.45.36.14.06.28.1.42.13.14.03.26.04.36.04l-.17.69c-.05.0-.11.0-.19.0-.08-.01-.16-.02-.25-.04C32 8.45 31.91 8.42 31.81 8.4c-.1-.03-.19-.06-.29-.1-.24-.1-.43-.22-.57-.37-.14-.15-.25-.31-.31-.49-.06-.18-.08-.37-.06-.57C30.61 6.67 30.66 6.47 30.75 6.26zM32.62 6.69c.02-.07.04-.14.05-.21.01-.07.0-.14-.01-.21s-.05-.13-.09-.18c-.05-.06-.11-.1-.2-.14-.08-.04-.16-.05-.23-.05-.07.01-.14.02-.2.06C31.87 6 31.82 6.04 31.77 6.1c-.05.06-.09.12-.13.18L32.62 6.69z"/><path class="st1" d="M34.65 6.46c.14.04.31.11.51.2.2.09.4.2.6.33.2.13.35.27.44.42.1.15.15.3.16.45.01.15-.02.31-.08.48-.06.16-.15.33-.26.5l-.95 1.42-.67-.45.9-1.34c.15-.23.23-.41.24-.55.01-.13-.07-.25-.22-.36-.05-.03-.1-.06-.16-.1-.06-.03-.11-.06-.16-.08l-1.3 1.95L33.02 8.9 34.65 6.46z"/><path class="st1" d="M36.45 9.46c.19-.19.38-.33.58-.42.2-.09.39-.14.57-.15s.36.02.52.09c.17.07.31.16.43.28.29.28.42.6.41.95-.02.35-.2.71-.56 1.08-.04.04-.07.07-.12.11-.04.04-.08.08-.12.11l-1.31-1.28c-.11.14-.15.29-.13.46.03.17.12.34.29.5.11.1.22.2.34.27s.23.14.32.17l-.41.57c-.05-.01-.1-.04-.17-.07s-.14-.08-.21-.13c-.08-.05-.15-.11-.23-.17-.08-.06-.16-.13-.23-.2-.18-.18-.31-.36-.39-.55-.08-.19-.11-.38-.1-.57.01-.19.06-.37.15-.55C36.17 9.79 36.29 9.62 36.45 9.46zM38.03 10.55c.05-.05.09-.11.12-.18.03-.06.06-.13.06-.2.01-.07.0-.14-.02-.2-.02-.07-.07-.14-.13-.2-.06-.06-.13-.11-.2-.13-.07-.02-.14-.03-.21-.02-.07.01-.14.03-.2.06-.07.03-.13.07-.19.12L38.03 10.55z"/></g><g><path class="st1" d="M13.47 35.19c.02-.2.03-.41.04-.65.01-.24.0-.49-.01-.74-.01-.26-.03-.51-.06-.76-.03-.25-.08-.49-.13-.71L11.96 34l-.93-.74 3.15-3.97.93.74-1.18 1.49c.43-.05.87-.11 1.33-.18.45-.07.88-.13 1.26-.19l1.1.87c-.54.1-1.06.18-1.58.25-.52.07-1.06.13-1.61.18.12.53.19 1.09.2 1.7.02.61-.01 1.24-.07 1.9L13.47 35.19z"/><path class="st1" d="M19.02 37.8c-.2-.02-.45-.07-.75-.14-.3-.07-.6-.17-.91-.29-.31-.13-.56-.27-.74-.44-.18-.17-.3-.35-.36-.54-.06-.2-.08-.41-.05-.63s.09-.46.19-.7l.8-1.99 1.05.42-.75 1.87c-.13.33-.18.58-.15.76.03.18.17.32.41.42.08.03.16.06.24.09.09.03.17.05.23.07l1.1-2.76 1.05.42L19.02 37.8z"/><path class="st1" d="M21.3 34.7c.2-.03.45-.06.76-.07.31-.02.63.0.96.03.34.04.61.11.83.21.22.11.38.25.5.42.11.17.19.36.22.58.03.22.04.46.01.72l-.22 2.16-1.12-.12.21-2.03c.04-.35.01-.6-.07-.76-.08-.16-.25-.25-.51-.27-.08-.01-.17-.01-.26-.02-.09.0-.17.0-.24.0l-.31 2.95-1.12-.12L21.3 34.7z"/><path class="st1" d="M29.75 37.97c-.09.05-.2.09-.33.14-.12.05-.26.1-.4.14-.14.04-.28.08-.43.12-.14.04-.28.07-.42.09-.32.06-.62.06-.89.01-.27-.05-.51-.14-.71-.28-.2-.14-.37-.32-.51-.55-.13-.23-.23-.49-.28-.79-.05-.31-.06-.59-.02-.85.04-.26.12-.49.24-.69.12-.2.28-.36.48-.49.2-.13.44-.22.72-.26.15-.03.3-.04.42-.03.13.01.26.03.39.06l-.29-1.72 1.08-.36L29.75 37.97zM26.92 36.6c.06.33.18.58.37.76.19.18.44.24.74.18.1-.02.19-.04.27-.06.08-.02.15-.04.21-.06l-.34-1.95c-.08-.03-.17-.05-.29-.06-.12-.01-.23.0-.35.02C27 35.52 26.8 35.91 26.92 36.6z"/><path class="st1" d="M30.69 35.85c-.15-.31-.23-.6-.24-.88-.01-.28.02-.53.11-.76.09-.23.21-.44.38-.61.17-.18.36-.32.58-.43.51-.25.99-.29 1.43-.14.44.16.8.53 1.09 1.11.03.06.06.12.08.19.03.07.05.13.07.19l-2.31 1.12c.12.19.3.3.53.34.23.03.49-.02.78-.16.19-.09.36-.2.53-.32.16-.12.29-.23.38-.34l.52.73c-.04.05-.1.12-.18.18-.08.07-.17.14-.27.22-.1.07-.21.15-.33.22-.12.07-.25.14-.37.2-.32.16-.63.25-.91.27-.28.02-.54-.01-.78-.09-.23-.08-.44-.22-.62-.4C30.96 36.32 30.81 36.1 30.69 35.85zM32.9 34.31c-.04-.08-.1-.15-.16-.22-.06-.07-.14-.12-.22-.15-.08-.04-.17-.05-.27-.05-.1.0-.21.03-.33.08-.11.05-.2.12-.27.2-.06.08-.11.16-.13.25-.02.09-.03.18-.02.28.01.1.03.19.05.28L32.9 34.31z"/><path class="st1" d="M33.91 32.11c.11-.17.26-.37.45-.61.19-.24.42-.47.66-.69.25-.23.49-.39.71-.47.22-.09.44-.12.64-.09.2.03.4.1.58.22.19.12.37.28.54.48l1.46 1.61-.84.76-1.37-1.51c-.24-.26-.44-.41-.61-.46-.17-.04-.35.02-.55.2-.06.05-.12.12-.18.18-.06.07-.12.13-.16.18l1.99 2.2-.84.76L33.91 32.11z"/></g></g></svg>