<?xml version="1.0" encoding="utf-8"?>
<!-- Generator: Adobe Illustrator 23.0.1, SVG Export Plug-In . SVG Version: 6.00 Build 0)  -->
<svg version="1.1" id="Ebene_1" xmlns="http://www.w3.org/2000/svg" xmlns:xlink="http://www.w3.org/1999/xlink" x="0px" y="0px"
	 viewBox="0 0 144 60" style="enable-background:new 0 0 144 60;" xml:space="preserve">
<style type="text/css">
	.st0{fill:#A0B947;}
	.st1{fill:#636362;}
</style>
<g>
	<path class="st0" d="M28.02,54.88c-0.41,0.48-0.96,1.01-1.67,1.56C25.65,57,24.77,57.52,23.7,58c-1.06,0.48-2.32,0.88-3.77,1.2
		c-1.45,0.32-3.11,0.48-4.99,0.48c-2.21,0-4.22-0.36-6.05-1.09c-1.82-0.73-3.39-1.8-4.68-3.21s-2.31-3.14-3.02-5.19
		c-0.71-2.05-1.07-4.4-1.07-7.04v-2.02c0-2.65,0.34-5,1.02-7.06c0.68-2.06,1.64-3.79,2.89-5.2c1.25-1.41,2.75-2.48,4.52-3.22
		c1.77-0.74,3.73-1.1,5.89-1.1c2.22,0,4.14,0.28,5.77,0.83c1.62,0.56,2.97,1.33,4.06,2.34c1.09,1,1.94,2.2,2.55,3.59
		c0.61,1.39,1.01,2.92,1.2,4.58h-6.86c-0.14-0.86-0.36-1.64-0.66-2.34c-0.3-0.7-0.7-1.29-1.22-1.78c-0.52-0.49-1.15-0.87-1.91-1.14
		c-0.76-0.27-1.66-0.4-2.71-0.4c-2.41,0-4.24,0.91-5.49,2.74c-1.25,1.82-1.88,4.53-1.88,8.11v2.07c0,3.58,0.68,6.29,2.04,8.12
		c1.36,1.83,3.36,2.75,5.99,2.75c0.85,0,1.58-0.05,2.21-0.16c0.63-0.11,1.16-0.25,1.61-0.41c0.45-0.16,0.82-0.34,1.12-0.54
		c0.3-0.2,0.54-0.39,0.73-0.58v-5.89h-6.41v-5.19h13.46V54.88z"/>
	<path class="st0" d="M46.28,46.69h-5.61V59.2h-7.04V25.01h12.7c1.97,0,3.74,0.22,5.31,0.67c1.57,0.45,2.89,1.1,3.97,1.97
		c1.08,0.87,1.91,1.95,2.49,3.23c0.58,1.28,0.87,2.77,0.87,4.46c0,1.25-0.14,2.38-0.42,3.37c-0.28,0.99-0.69,1.88-1.22,2.65
		c-0.53,0.78-1.18,1.45-1.93,2.03c-0.75,0.58-1.6,1.08-2.54,1.5l7.4,13.97v0.33h-7.56L46.28,46.69z M40.67,40.98h5.68
		c0.92,0,1.73-0.12,2.43-0.36c0.7-0.24,1.28-0.59,1.74-1.03c0.46-0.45,0.81-0.98,1.04-1.6s0.35-1.31,0.35-2.08
		c0-1.61-0.46-2.88-1.37-3.8c-0.92-0.92-2.32-1.39-4.21-1.39h-5.66V40.98z"/>
	<path class="st0" d="M89.54,32.87v14.71c0,1.97-0.33,3.71-0.99,5.23c-0.66,1.51-1.57,2.77-2.72,3.79c-1.16,1.02-2.54,1.78-4.14,2.3
		c-1.61,0.52-3.35,0.78-5.25,0.78c-1.91,0-3.67-0.26-5.27-0.78c-1.61-0.52-2.99-1.28-4.15-2.3c-1.16-1.02-2.06-2.28-2.71-3.79
		c-0.65-1.51-0.97-3.25-0.97-5.23V32.87h7.04v14.71c0,2.24,0.54,3.87,1.61,4.9c1.07,1.02,2.56,1.54,4.45,1.54
		c1.91,0,3.39-0.51,4.45-1.54c1.06-1.03,1.59-2.66,1.59-4.9V32.87H89.54z M67.35,27.72c0-0.42,0.08-0.81,0.23-1.17
		c0.16-0.36,0.38-0.68,0.67-0.95c0.29-0.27,0.63-0.48,1.03-0.63c0.4-0.15,0.83-0.22,1.3-0.22c0.47,0,0.9,0.07,1.3,0.22
		c0.4,0.15,0.74,0.36,1.02,0.63c0.28,0.27,0.51,0.59,0.67,0.95c0.16,0.36,0.25,0.75,0.25,1.17c0,0.42-0.08,0.81-0.25,1.17
		c-0.16,0.36-0.39,0.67-0.67,0.94c-0.28,0.27-0.62,0.47-1.02,0.62c-0.4,0.15-0.83,0.22-1.3,0.22c-0.47,0-0.9-0.07-1.3-0.22
		c-0.4-0.15-0.74-0.36-1.03-0.62c-0.29-0.27-0.51-0.58-0.67-0.94C67.43,28.54,67.35,28.15,67.35,27.72z M78.78,27.72
		c0-0.42,0.08-0.81,0.25-1.17c0.16-0.36,0.39-0.67,0.67-0.94c0.28-0.27,0.62-0.48,1.02-0.63c0.4-0.16,0.83-0.23,1.3-0.23
		s0.9,0.08,1.3,0.23c0.4,0.16,0.74,0.37,1.03,0.63c0.29,0.27,0.52,0.58,0.68,0.94c0.16,0.36,0.25,0.75,0.25,1.17
		c0,0.42-0.08,0.81-0.25,1.17c-0.16,0.36-0.39,0.68-0.68,0.95c-0.29,0.27-0.63,0.48-1.03,0.63c-0.4,0.15-0.83,0.22-1.3,0.22
		s-0.9-0.07-1.3-0.22c-0.4-0.15-0.74-0.36-1.02-0.63c-0.28-0.27-0.5-0.59-0.67-0.95C78.87,28.54,78.78,28.15,78.78,27.72z"/>
	<path class="st0" d="M123.17,59.2h-7.04l-13.71-22.5v22.5h-7.04V25.01h7.04l13.74,22.54V25.01h7.02V59.2z"/>
</g>
<g>
	<path class="st0" d="M133.55,54.71c0-0.7,0.12-1.35,0.35-1.95s0.57-1.12,1.01-1.57c0.44-0.45,0.97-0.8,1.61-1.05
		c0.64-0.25,1.37-0.37,2.19-0.37c0.82,0,1.55,0.13,2.19,0.37c0.64,0.25,1.17,0.6,1.61,1.05c0.44,0.45,0.77,0.97,1.01,1.57
		c0.24,0.6,0.36,1.25,0.36,1.95c0,1.37-0.45,2.52-1.35,3.44c-0.9,0.92-2.17,1.38-3.82,1.38s-2.92-0.46-3.81-1.38
		C134,57.23,133.55,56.08,133.55,54.71z M142.49,42.97h-7.82l-0.86-38.42h9.58L142.49,42.97z"/>
</g>
<g>
	<path class="st1" d="M4.01,16.38H2V1.16h2.01V16.38z"/>
	<path class="st1" d="M11.8,15.01c0.69,0,1.29-0.21,1.81-0.63c0.52-0.42,0.8-0.94,0.86-1.57h1.83c-0.04,0.65-0.26,1.26-0.67,1.85
		c-0.41,0.59-0.96,1.05-1.65,1.4c-0.69,0.35-1.41,0.52-2.18,0.52c-1.54,0-2.76-0.51-3.67-1.54c-0.91-1.03-1.36-2.43-1.36-4.22v-0.32
		c0-1.1,0.2-2.08,0.61-2.94s0.98-1.52,1.74-2c0.76-0.47,1.65-0.71,2.68-0.71c1.27,0,2.32,0.38,3.16,1.14
		c0.84,0.76,1.29,1.75,1.34,2.96h-1.83c-0.06-0.73-0.33-1.33-0.83-1.8c-0.5-0.47-1.11-0.71-1.85-0.71c-0.98,0-1.74,0.35-2.28,1.06
		s-0.81,1.73-0.81,3.07v0.37c0,1.3,0.27,2.31,0.81,3.01C10.04,14.66,10.8,15.01,11.8,15.01z"/>
	<path class="st1" d="M20.39,6.44c0.86-1.05,1.97-1.58,3.34-1.58c2.39,0,3.6,1.35,3.62,4.05v7.47h-1.93V8.9
		c-0.01-0.82-0.19-1.42-0.56-1.81C24.49,6.7,23.92,6.5,23.15,6.5c-0.63,0-1.18,0.17-1.65,0.5c-0.47,0.33-0.84,0.77-1.11,1.32v8.06
		h-1.93V0.33h1.93V6.44z"/>
	<path class="st1" d="M35.56,2.07c0-0.31,0.1-0.58,0.29-0.79s0.48-0.32,0.85-0.32c0.38,0,0.66,0.11,0.86,0.32s0.29,0.48,0.29,0.79
		s-0.1,0.57-0.29,0.78s-0.48,0.31-0.86,0.31c-0.38,0-0.66-0.1-0.85-0.31S35.56,2.39,35.56,2.07z M37.65,16.38h-1.93V5.07h1.93V16.38
		z"/>
	<path class="st1" d="M42.41,5.07l0.06,1.42c0.86-1.09,1.99-1.63,3.39-1.63c2.39,0,3.6,1.35,3.62,4.05v7.47h-1.93V8.9
		c-0.01-0.82-0.19-1.42-0.56-1.81C46.62,6.7,46.05,6.5,45.28,6.5c-0.63,0-1.18,0.17-1.65,0.5c-0.47,0.33-0.84,0.77-1.11,1.32v8.06
		h-1.93V5.07H42.41z"/>
	<path class="st1" d="M55.68,13.76l2.8-8.69h1.98L56.4,16.38h-1.47l-4.1-11.31h1.98L55.68,13.76z"/>
	<path class="st1" d="M66.49,16.59c-1.53,0-2.78-0.5-3.74-1.51c-0.96-1.01-1.44-2.35-1.44-4.04v-0.36c0-1.12,0.21-2.12,0.64-3.01
		c0.43-0.88,1.03-1.57,1.8-2.07c0.77-0.5,1.6-0.75,2.5-0.75c1.47,0,2.61,0.49,3.43,1.45s1.22,2.36,1.22,4.16v0.8h-7.66
		c0.03,1.12,0.35,2.02,0.98,2.7c0.62,0.69,1.42,1.03,2.38,1.03c0.68,0,1.26-0.14,1.73-0.42c0.47-0.28,0.89-0.65,1.24-1.11l1.18,0.92
		C69.81,15.86,68.39,16.59,66.49,16.59z M66.25,6.45c-0.78,0-1.44,0.28-1.97,0.85c-0.53,0.57-0.86,1.36-0.98,2.39h5.67V9.54
		c-0.06-0.98-0.32-1.74-0.79-2.28S67.06,6.45,66.25,6.45z"/>
	<path class="st1" d="M79.55,13.38c0-0.52-0.2-0.93-0.59-1.22c-0.39-0.29-1.08-0.54-2.06-0.75c-0.98-0.21-1.76-0.46-2.33-0.75
		c-0.58-0.29-1-0.64-1.28-1.05c-0.28-0.4-0.41-0.88-0.41-1.44c0-0.93,0.39-1.71,1.18-2.35c0.78-0.64,1.79-0.96,3.01-0.96
		c1.28,0,2.32,0.33,3.12,0.99s1.2,1.51,1.2,2.54h-1.94c0-0.53-0.22-0.99-0.67-1.37c-0.45-0.38-1.02-0.58-1.7-0.58
		c-0.7,0-1.25,0.15-1.65,0.46c-0.4,0.31-0.6,0.71-0.6,1.2c0,0.47,0.18,0.82,0.55,1.06c0.37,0.24,1.04,0.46,2,0.68
		c0.97,0.22,1.75,0.47,2.35,0.77c0.6,0.3,1.04,0.66,1.33,1.08c0.29,0.42,0.43,0.94,0.43,1.54c0,1.01-0.4,1.82-1.21,2.43
		c-0.81,0.61-1.86,0.91-3.15,0.91c-0.91,0-1.71-0.16-2.4-0.48c-0.7-0.32-1.24-0.77-1.64-1.34c-0.39-0.58-0.59-1.2-0.59-1.87h1.93
		c0.04,0.65,0.29,1.16,0.78,1.54c0.48,0.38,1.12,0.57,1.92,0.57c0.73,0,1.32-0.15,1.76-0.44C79.33,14.27,79.55,13.88,79.55,13.38z"
		/>
	<path class="st1" d="M86.7,2.33v2.74h2.11v1.5H86.7v7.02c0,0.45,0.09,0.79,0.28,1.02c0.19,0.23,0.51,0.34,0.96,0.34
		c0.22,0,0.53-0.04,0.92-0.13v1.56c-0.51,0.14-1,0.21-1.48,0.21c-0.86,0-1.52-0.26-1.96-0.78c-0.44-0.52-0.66-1.27-0.66-2.23V6.57
		h-2.06v-1.5h2.06V2.33H86.7z"/>
	<path class="st1" d="M90.74,2.07c0-0.31,0.1-0.58,0.29-0.79s0.48-0.32,0.85-0.32c0.38,0,0.66,0.11,0.86,0.32s0.29,0.48,0.29,0.79
		s-0.1,0.57-0.29,0.78s-0.48,0.31-0.86,0.31c-0.38,0-0.66-0.1-0.85-0.31S90.74,2.39,90.74,2.07z M92.83,16.38H90.9V5.07h1.93V16.38z
		"/>
	<path class="st1" d="M100.4,16.59c-1.53,0-2.78-0.5-3.74-1.51s-1.44-2.35-1.44-4.04v-0.36c0-1.12,0.21-2.12,0.64-3.01
		c0.43-0.88,1.03-1.57,1.8-2.07s1.6-0.75,2.5-0.75c1.47,0,2.61,0.49,3.43,1.45s1.22,2.36,1.22,4.16v0.8h-7.66
		c0.03,1.12,0.35,2.02,0.98,2.7c0.62,0.69,1.42,1.03,2.38,1.03c0.68,0,1.26-0.14,1.73-0.42c0.47-0.28,0.89-0.65,1.24-1.11l1.18,0.92
		C103.72,15.86,102.3,16.59,100.4,16.59z M100.16,6.45c-0.78,0-1.44,0.28-1.97,0.85c-0.53,0.57-0.86,1.36-0.98,2.39h5.67V9.54
		c-0.06-0.98-0.32-1.74-0.79-2.28C101.61,6.72,100.97,6.45,100.16,6.45z"/>
	<path class="st1" d="M112.54,6.81c-0.29-0.05-0.61-0.07-0.95-0.07c-1.27,0-2.13,0.54-2.58,1.62v8.03h-1.93V5.07h1.88l0.03,1.31
		c0.63-1.01,1.53-1.52,2.7-1.52c0.38,0,0.66,0.05,0.86,0.15V6.81z"/>
	<path class="st1" d="M118.76,16.59c-1.53,0-2.78-0.5-3.74-1.51s-1.44-2.35-1.44-4.04v-0.36c0-1.12,0.21-2.12,0.64-3.01
		c0.43-0.88,1.03-1.57,1.8-2.07s1.6-0.75,2.5-0.75c1.47,0,2.61,0.49,3.43,1.45s1.22,2.36,1.22,4.16v0.8h-7.66
		c0.03,1.12,0.35,2.02,0.98,2.7c0.62,0.69,1.42,1.03,2.38,1.03c0.68,0,1.26-0.14,1.73-0.42c0.47-0.28,0.89-0.65,1.24-1.11l1.18,0.92
		C122.08,15.86,120.66,16.59,118.76,16.59z M118.52,6.45c-0.78,0-1.44,0.28-1.97,0.85s-0.86,1.36-0.98,2.39h5.67V9.54
		c-0.06-0.98-0.32-1.74-0.79-2.28C119.97,6.72,119.33,6.45,118.52,6.45z"/>
</g>
</svg>
