<svg xmlns="http://www.w3.org/2000/svg" width="19" height="19" viewBox="0 0 19 19"><g id="Gruppe_263" data-name="Gruppe 263" transform="translate(-905.607 -14.607)"><rect id="Rechteck_79" data-name="Rechteck 79" width="19" height="19" rx="5" transform="translate(905.607 14.607)" fill="#ffa300"/><path id="Pfad_194" data-name="Pfad 194" d="M110.91 74.789a2.452 2.452.0 0 1-1.135.986 3.555 3.555.0 0 1-1.73.475 7.157 7.157.0 0 1-2.436-.642 8.685 8.685.0 0 1-1.627-.771 15.713 15.713.0 0 1-4.464-4.464 8.686 8.686.0 0 1-.771-1.628 7.147 7.147.0 0 1-.642-2.436 3.554 3.554.0 0 1 .474-1.73 2.453 2.453.0 0 1 .986-1.135 4.129 4.129.0 0 1 1.293-.288.476.476.0 0 1 .2.028c.2.065.4.521.493.707.3.53.586 1.069.893 1.59.149.241.428.539.428.828.0.567-1.683 1.394-1.683 1.9a2 2 0 0 0 .363.8 9.255 9.255.0 0 0 3.8 3.8 1.994 1.994.0 0 0 .8.363c.5.0 1.329-1.683 1.9-1.683.289.0.586.279.828.428.521.307 1.06.6 1.59.893.186.093.642.3.707.493a.478.478.0 0 1 .028.2A4.152 4.152.0 0 1 110.91 74.789z" transform="translate(810.775 -45.658)" fill="#fff"/></g></svg>