<svg xmlns="http://www.w3.org/2000/svg" width="72.867" height="54.65" viewBox="0 0 72.867 54.65"><g id="pv-rentabel" transform="translate(-0.1)"><path id="Pfad_659" data-name="Pfad 659" d="M71.221 45.487a1.877 1.877.0 0 1 1.745 1.745V52.9a1.877 1.877.0 0 1-1.745 1.745H1.845a1.752 1.752.0 0 1-1.2-.545A1.752 1.752.0 0 1 .1 52.9V1.745A1.752 1.752.0 0 1 .645.545 1.752 1.752.0 0 1 1.845.0H7.518a1.563 1.563.0 0 1 1.2.545 1.752 1.752.0 0 1 .545 1.2V45.487H71.221z" transform="translate(0)" fill="#3e4143"/><path id="Pfad_660" data-name="Pfad 660" d="M63.787 4.2H47.97a3.207 3.207.0 0 0-2.4.982 3.207 3.207.0 0 0-.982 2.4 3.207 3.207.0 0 0 .982 2.4l4.691 4.691L40.007 25.035l-7.963-7.963a1.4 1.4.0 0 0-1.091-.436 2.1 2.1.0 0 0-1.309.436L12.736 33.87a1.4 1.4.0 0 0-.436 1.091 2.1 2.1.0 0 0 .436 1.309l4.145 4.145a1.515 1.515.0 0 0 1.091.545 2.266 2.266.0 0 0 1.309-.545L30.953 28.743l7.854 7.963a1.739 1.739.0 0 0 1.309.436 1.265 1.265.0 0 0 1.091-.436L56.7 21.217l4.691 4.691a3.382 3.382.0 0 0 5.781-2.4V7.582a3.207 3.207.0 0 0-.982-2.4A3.207 3.207.0 0 0 63.787 4.2z" transform="translate(1.108 0.381)" fill="#a0b947"/></g></svg>