<svg id="pv-zweiminuten" xmlns="http://www.w3.org/2000/svg" width="70.482" height="93.158" viewBox="0 0 70.482 93.158"><g id="Gruppe_538" data-name="Gruppe 538"><g id="Gruppe_536" data-name="Gruppe 536" transform="translate(30.644 18.386)"><path id="Pfad_663" data-name="Pfad 663" d="M24.443 39.886A4.447 4.447.0 0 1 20 35.443v-19a4.443 4.443.0 1 1 8.887.0v19A4.447 4.447.0 0 1 24.443 39.886z" transform="translate(-20 -12)" fill="#a0b947"/></g><path id="Pfad_664" data-name="Pfad 664" d="M56.538 13.177l.919-1.685a3.706 3.706.0 0 0-6.435-3.677L50.1 9.346A33.59 33.59.0 0 0 38.765 6.129V3.677a3.677 3.677.0 0 0-7.355.0v2.6A35.52 35.52.0 0 0 19.919 9.5L19 7.814a3.512 3.512.0 0 0-4.9-1.226 3.437 3.437.0 0 0-1.379 4.9L13.79 13.33A35.216 35.216.0 1 0 70.482 41.216 35.416 35.416.0 0 0 56.538 13.177zm-21.3 56.079A27.963 27.963.0 1 1 63.127 41.216 27.922 27.922.0 0 1 35.241 69.256z" fill="#3e4143"/><g id="Gruppe_537" data-name="Gruppe 537" transform="translate(29.112 35.088)"><circle id="Ellipse_59" data-name="Ellipse 59" cx="6.129" cy="6.129" r="6.129" fill="#3e4143"/></g></g><g id="Gruppe_539" data-name="Gruppe 539" transform="translate(19.153 83.352)"><path id="Pfad_665" data-name="Pfad 665" d="M18.935 64.206H12.5v-.919l3.371-3.831c.46-.613.919-1.073 1.073-1.379A2.841 2.841.0 0 0 17.25 57a1.582 1.582.0 0 0-1.685-1.685 1.873 1.873.0 0 0-1.379.46 2.288 2.288.0 0 0-.46 1.532H12.5a2.571 2.571.0 0 1 .919-2.145 3.764 3.764.0 0 1 2.3-.766 3.031 3.031.0 0 1 2.145.766A2.537 2.537.0 0 1 18.629 57a6 6 0 0 1-1.839 3.524l-2.6 2.911h4.9v.766z" transform="translate(-12.5 -54.4)" fill="#3e4143"/><path id="Pfad_666" data-name="Pfad 666" d="M21.685 54.4 24.9 62.367 28.121 54.4h1.685v9.806H28.58V60.376l.153-4.137-3.218 7.967H24.6l-3.218-7.967.153 4.137v3.831H20V54.4z" transform="translate(-8.508 -54.4)" fill="#3e4143"/><path id="Pfad_667" data-name="Pfad 667" d="M27.7 55.013a.563.563.0 0 1 .153-.46c.153-.153.306-.153.613-.153s.46.0.613.153a.766.766.0 0 1 0 .919c-.153.153-.306.153-.613.153s-.46.0-.613-.153C27.853 55.319 27.7 55.166 27.7 55.013zm1.379 9.193H27.853V56.852h1.226z" transform="translate(-4.41 -54.4)" fill="#3e4143"/><path id="Pfad_668" data-name="Pfad 668" d="M31.126 56.053v.919A2.485 2.485.0 0 1 33.271 55.9c1.532.0 2.3.919 2.3 2.6v4.75H34.343V58.5a2.887 2.887.0 0 0-.306-1.226 1.293 1.293.0 0 0-1.073-.306 2.215 2.215.0 0 0-1.073.306 1.569 1.569.0 0 0-.766.919v5.21H29.9V56.053z" transform="translate(-3.24 -53.602)" fill="#3e4143"/></g></svg>