<svg id="Ebene_3" data-name="Ebene 3" xmlns="http://www.w3.org/2000/svg" viewBox="0 0 27.69 37.41"><defs><style>.cls-1{isolation:isolate}.cls-2{fill:#fff}</style></defs><g id="_3" data-name="3" class="cls-1"><g class="cls-1"><path class="cls-2" d="M9.91 16h3.23a4.55 4.55.0 0 0 3.42-1.16 4.2 4.2.0 0 0 1.12-3.06 3.74 3.74.0 0 0-1.11-2.88 4.28 4.28.0 0 0-3-1 4.48 4.48.0 0 0-2.92 1 3 3 0 0 0-1.17 2.49H3.38A7.48 7.48.0 0 1 4.67 7a8.67 8.67.0 0 1 3.61-3A12.12 12.12.0 0 1 13.39 3Q18.25 3 21 5.32a7.9 7.9.0 0 1 2.75 6.39 6.42 6.42.0 0 1-1.28 3.87 8.32 8.32.0 0 1-3.36 2.71A7.57 7.57.0 0 1 23 21.06a7.54 7.54.0 0 1 1.27 4.36 8 8 0 0 1-3 6.53 12 12 0 0 1-7.87 2.46A11.31 11.31.0 0 1 5.91 32 7.89 7.89.0 0 1 3 25.61H9.07a3.53 3.53.0 0 0 1.29 2.82 4.79 4.79.0 0 0 3.18 1.09 4.75 4.75.0 0 0 3.39-1.15 3.93 3.93.0 0 0 1.23-3q0-4.57-5-4.58H9.91z"/></g></g></svg>