<svg id="Ebene_2" data-name="Ebene 2" xmlns="http://www.w3.org/2000/svg" viewBox="0 0 27.69 37.41"><defs><style>.cls-1{isolation:isolate}.cls-2{fill:#fff}</style></defs><g id="_2" data-name="2" class="cls-1"><g class="cls-1"><path class="cls-2" d="M24.69 34h-21V29.83l9.89-10.54a24.4 24.4.0 0 0 3-3.88 6.26 6.26.0 0 0 1-3.15 4.63 4.63.0 0 0-1-3.2 3.68 3.68.0 0 0-2.93-1.17A4 4 0 0 0 10.4 9.31 5.62 5.62.0 0 0 9.21 13H3.13A10 10 0 0 1 4.46 7.93 9.4 9.4.0 0 1 8.23 4.31 11.48 11.48.0 0 1 13.75 3q4.72.0 7.34 2.27a8 8 0 0 1 2.61 6.4 10.34 10.34.0 0 1-1.17 4.62 26.06 26.06.0 0 1-4 5.48L11.55 29.1H24.69z"/></g></g></svg>