<svg xmlns="http://www.w3.org/2000/svg" width="75.281" height="65.772" viewBox="0 0 75.281 65.772"><g id="pv-foerderung" transform="translate(0 -0.1)"><g id="Gruppe_534" data-name="Gruppe 534" transform="translate(0 39.325)"><path id="Pfad_661" data-name="Pfad 661" d="M75.281 34.29a4.293 4.293.0 0 1-1.453 3.3L54.018 54.365a7.97 7.97.0 0 1-5.283 1.981H2.113a2.121 2.121.0 0 1-1.453-.66A2.187 2.187.0 0 1 0 54.1V40.894a2.187 2.187.0 0 1 .66-1.585 2.121 2.121.0 0 1 1.453-.66h7.4l5.943-5.283A14.784 14.784.0 0 1 25.094 29.8H45.961a4.187 4.187.0 0 1 3.3 1.585 3.945 3.945.0 0 1 .925 3.566A3.745 3.745.0 0 1 48.6 37.592a4.542 4.542.0 0 1-2.774 1.057H35.66a2.121 2.121.0 0 0-1.453.66 2.232 2.232.0 0 0 0 3.17 2.121 2.121.0 0 0 1.453.66H51.112a7.4 7.4.0 0 0 5.151-1.981l12.151-10.3a4 4 0 0 1 5.415.0A4.321 4.321.0 0 1 75.281 34.29z" transform="translate(0 -29.8)" fill="#3e4143"/></g><g id="Gruppe_535" data-name="Gruppe 535" transform="translate(26.679 0.1)"><path id="Pfad_662" data-name="Pfad 662" d="M42.124 29.288a1.191 1.191.0 0 1-.132.66l-.4.4a14.839 14.839.0 0 1-4.226.528 14.944 14.944.0 0 1-9.245-3.038 13.783 13.783.0 0 1-5.019-7.66H20.992a.686.686.0 0 1-.528-.264 1 1 0 0 1-.264-.528V17.4a.686.686.0 0 1 .264-.528 1 1 0 0 1 .528-.264h1.453a22.387 22.387.0 0 1 .132-2.906H21.125a.686.686.0 0 1-.528-.264 1 1 0 0 1-.264-.528V10.8a.686.686.0 0 1 .264-.528 1 1 0 0 1 .528-.264H23.37a14.954 14.954.0 0 1 5.283-7.132A14.3 14.3.0 0 1 37.369.1a16.393 16.393.0 0 1 3.566.4c.264.0.4.132.528.4a1.191 1.191.0 0 1 .132.66L40.8 4.59a1.823 1.823.0 0 1-.4.528.794.794.0 0 1-.528.132 19.85 19.85.0 0 0-2.641-.264 8.76 8.76.0 0 0-4.887 1.321 7.592 7.592.0 0 0-3.17 3.83H38.69a1.009 1.009.0 0 1 .66.264c.132.264.264.4.132.66l-.4 1.981a.934.934.0 0 1-.792.792H28.256a10.691 10.691.0 0 0 0 2.906H37.5a1.009 1.009.0 0 1 .66.264.581.581.0 0 1 .132.66l-.4 1.981c0 .132-.132.4-.264.4a.794.794.0 0 1-.528.132H29.313a8.11 8.11.0 0 0 3.3 4.226 8.521 8.521.0 0 0 5.151 1.585 11.991 11.991.0 0 0 3.038-.4 1.191 1.191.0 0 1 .66.132c.264.132.4.264.4.528z" transform="translate(-20.2 -0.1)" fill="#a0b947"/></g></g></svg>