<svg xmlns="http://www.w3.org/2000/svg" width="27.18" height="16.328" viewBox="0 0 27.18 16.328"><path id="Pfad_193" data-name="Pfad 193" d="M213.181 195.256h4.077v9.513a1.378 1.378.0 0 1-1.359 1.359h-2.718zm1.55 8.345a.72.72.0 1 0 .489-.191A.662.662.0 0 0 214.731 203.6zm19.493 1.508a1.319 1.319.0 0 1-.318 1.019l-.382.467a1.255 1.255.0 0 1-.912.531 1.226 1.226.0 0 1-1-.319l-.212-.17-1.359 1.614a1.483 1.483.0 0 1-1.041.595 1.461 1.461.0 0 1-1.168-.34l-.764-.679a2.685 2.685.0 0 1-1.848 1.019 2.494 2.494.0 0 1-1.975-.595l-3.865-3.483h-.764v-9.513l2.336-2.336a1.271 1.271.0 0 1 .934-.382h3.567l-3.483 3.185a2.889 2.889.0 0 0-.977 2.124 2.945 2.945.0 0 0 .807 2.187 2.975 2.975.0 0 0 2.1.977 3.051 3.051.0 0 0 2.23-.786l1.274-1.189 6.327 5.181A1.288 1.288.0 0 1 234.224 205.109zM232.59 192.92l2.335 2.336v8.2a3.177 3.177.0 0 0-.34-.3l-6.2-5.012 1.1-1.019a.758.758.0 0 0 .234-.488.63.63.0 0 0-.17-.488.6.6.0 0 0-.467-.212.76.76.0 0 0-.489.17l-3.4 3.143a1.844 1.844.0 0 1-1.274.382 1.573 1.573.0 0 1-1.147-.531 1.749 1.749.0 0 1-.425-1.189 1.468 1.468.0 0 1 .552-1.168l4.162-3.865a1.356 1.356.0 0 1 .934-.34h3.653A1.271 1.271.0 0 1 232.59 192.92zm7.771 2.336v10.872h-2.718a1.378 1.378.0 0 1-1.359-1.359v-9.513zm-1.55 9.322a.72.72.0 1 0-.489.191A.662.662.0 0 0 238.811 204.578z" transform="translate(-213.181 -192.538)" fill="#ffa300"/></svg>