<?xml version="1.0" encoding="UTF-8"?><svg id="Typo" xmlns="http://www.w3.org/2000/svg" xmlns:xlink="http://www.w3.org/1999/xlink" viewBox="0 0 50 68"><defs><style>.cls-1{fill:#fff;}.cls-2{fill:url(#Unbenannter_Verlauf);}.cls-3{filter:url(#drop-shadow-15);}</style><linearGradient id="Unbenannter_Verlauf" x1="25" y1="117.41" x2="25" y2="50" gradientTransform="translate(0 -50)" gradientUnits="userSpaceOnUse"><stop offset="0" stop-color="#ff9d04"/><stop offset="1" stop-color="#ffbe2c"/></linearGradient><filter id="drop-shadow-15" filterUnits="userSpaceOnUse"><feOffset dx="1" dy="1"/><feGaussianBlur result="blur" stdDeviation="1"/><feFlood flood-color="#000" flood-opacity=".3"/><feComposite in2="blur" operator="in"/><feComposite in="SourceGraphic"/></filter></defs><polyline class="cls-2" points=".43 0 .43 67.41 25.25 59.44 49.57 67.41 49.57 0"/><polygon class="cls-1" points="50 68 25.25 59.89 0 68 0 0 .85 0 .85 66.83 25.25 58.99 25.38 59.04 49.15 66.82 49.15 0 50 0 50 68"/><g class="cls-3"><path class="cls-1" d="m5.2,17.13h3.23v1.06H3.55v-.77l3.16-4.56h-3.16v-1.07h4.8v.76l-3.16,4.58Z"/><path class="cls-1" d="m9.08,12.2c0-.19.06-.35.19-.47.13-.12.3-.18.52-.18s.39.06.52.18.19.28.19.47-.07.35-.2.47c-.13.12-.3.18-.52.18s-.39-.06-.52-.18c-.13-.12-.2-.28-.2-.47Zm1.35,5.99h-1.27v-4.75h1.27v4.75Z"/><path class="cls-1" d="m12.57,13.43l.04.55c.34-.42.79-.64,1.37-.64.5,0,.88.15,1.12.44s.37.74.38,1.33v3.07h-1.27v-3.04c0-.27-.06-.46-.18-.59-.12-.12-.31-.18-.58-.18-.36,0-.62.15-.8.46v3.35h-1.27v-4.75h1.2Z"/><path class="cls-1" d="m18.93,16.87c0-.16-.08-.28-.23-.37-.15-.09-.4-.17-.74-.24-1.13-.24-1.7-.72-1.7-1.44,0-.42.17-.77.53-1.06.35-.28.81-.42,1.37-.42.6,0,1.09.14,1.45.43.36.28.54.65.54,1.11h-1.27c0-.18-.06-.33-.18-.45-.12-.12-.3-.18-.55-.18-.21,0-.38.05-.5.15s-.18.22-.18.37c0,.14.07.25.2.34.13.09.36.16.67.22s.58.13.8.21c.67.25,1.01.67,1.01,1.28,0,.43-.19.78-.56,1.05-.37.27-.85.4-1.44.4-.4,0-.75-.07-1.06-.21-.31-.14-.55-.34-.73-.58-.18-.25-.26-.51-.26-.8h1.2c.01.23.1.4.25.52s.36.18.62.18c.24,0,.43-.05.55-.14.12-.09.19-.21.19-.36Z"/><path class="cls-1" d="m23.09,18.27c-.7,0-1.26-.21-1.7-.64-.44-.43-.66-1-.66-1.71v-.12c0-.48.09-.9.28-1.28s.45-.67.79-.87c.34-.2.72-.31,1.16-.31.65,0,1.16.21,1.54.62.37.41.56.99.56,1.74v.52h-3.03c.04.31.17.56.37.75.21.19.47.28.78.28.49,0,.87-.18,1.15-.53l.62.7c-.19.27-.45.48-.77.63-.33.15-.69.23-1.08.23Zm-.14-3.91c-.25,0-.46.09-.61.26-.16.17-.26.42-.3.73h1.77v-.1c0-.28-.08-.5-.23-.66-.15-.15-.35-.23-.62-.23Z"/><path class="cls-1" d="m26.86,13.43l.04.55c.34-.42.79-.64,1.37-.64.5,0,.88.15,1.12.44s.37.74.38,1.33v3.07h-1.27v-3.04c0-.27-.06-.46-.18-.59-.12-.12-.31-.18-.59-.18-.36,0-.62.15-.8.46v3.35h-1.27v-4.75h1.2Z"/><path class="cls-1" d="m34.59,16.63l.88-3.2h1.33l-1.6,4.75h-1.21l-1.6-4.75h1.33l.88,3.2Z"/><path class="cls-1" d="m37.01,15.76c0-.47.09-.89.27-1.26s.44-.65.78-.86c.34-.2.74-.3,1.19-.3.64,0,1.17.2,1.57.59.41.39.63.93.68,1.6v.33c0,.73-.19,1.31-.6,1.76s-.95.66-1.64.66-1.23-.22-1.64-.66c-.41-.44-.61-1.04-.61-1.79v-.06Zm1.27.09c0,.45.08.8.25,1.04.17.24.41.36.73.36s.55-.12.72-.35c.17-.24.26-.61.26-1.13,0-.44-.09-.79-.26-1.03-.17-.24-.42-.37-.73-.37s-.55.12-.72.36c-.17.24-.25.62-.25,1.12Z"/><path class="cls-1" d="m43.38,13.43l.04.55c.34-.42.8-.64,1.37-.64.5,0,.88.15,1.12.44s.37.74.38,1.33v3.07h-1.27v-3.04c0-.27-.06-.46-.18-.59-.12-.12-.31-.18-.58-.18-.36,0-.62.15-.8.46v3.35h-1.27v-4.75h1.2Z"/><path class="cls-1" d="m13.86,23.26v2.09h-.25c-1.15.02-2.07.32-2.77.9s-1.12,1.39-1.26,2.42c.68-.69,1.54-1.04,2.58-1.04,1.11,0,2,.4,2.65,1.2s.98,1.85.98,3.15c0,.83-.18,1.58-.54,2.26s-.87,1.2-1.53,1.57-1.41.56-2.24.56c-1.35,0-2.44-.47-3.26-1.41s-1.24-2.19-1.24-3.75v-.91c0-1.39.26-2.61.79-3.68s1.28-1.89,2.26-2.47,2.12-.88,3.41-.88h.42Zm-2.48,6.42c-.41,0-.78.11-1.12.32s-.58.5-.74.85v.77c0,.85.17,1.51.5,1.99s.8.71,1.41.71c.54,0,.99-.21,1.32-.64.34-.43.5-.99.5-1.67s-.17-1.26-.51-1.68c-.34-.43-.8-.64-1.37-.64Z"/><path class="cls-1" d="m17.88,39.39l-1.33-.69.32-.57c.39-.71.59-1.43.61-2.14v-1.97h2.14v1.76c-.01.65-.18,1.31-.5,1.97s-.74,1.21-1.24,1.64Z"/><path class="cls-1" d="m21.71,29.89l.74-6.5h7.17v2.12h-5.09l-.32,2.75c.6-.32,1.25-.48,1.92-.48,1.22,0,2.17.38,2.86,1.13s1.04,1.81,1.04,3.17c0,.83-.17,1.57-.52,2.22-.35.65-.85,1.16-1.5,1.52s-1.42.54-2.3.54c-.77,0-1.49-.16-2.15-.47s-1.19-.75-1.57-1.32-.59-1.22-.61-1.94h2.51c.05.53.24.95.56,1.24s.74.44,1.25.44c.57,0,1.02-.21,1.33-.62s.47-1,.47-1.75-.18-1.28-.54-1.67-.86-.58-1.52-.58c-.6,0-1.09.16-1.47.47l-.25.23-2.02-.5Z"/><path class="cls-1" d="m31.44,25.85c0-.79.25-1.42.76-1.91s1.18-.73,2-.73,1.51.24,2.02.73.76,1.14.76,1.96v.63c0,.79-.25,1.43-.76,1.91s-1.18.72-2,.72-1.5-.24-2.02-.73-.77-1.14-.77-1.96v-.62Zm1.69.68c0,.35.1.63.3.85.2.21.47.32.79.32s.59-.11.78-.33.29-.51.29-.87v-.65c0-.35-.1-.64-.29-.85s-.46-.33-.8-.33c-.32,0-.58.11-.78.32s-.3.51-.3.89v.64Zm1.6,8.7l-1.24-.67,6.25-10,1.24.67-6.25,10Zm2.83-2.18c0-.79.26-1.43.77-1.91s1.18-.73,2-.73,1.5.24,2.02.72.77,1.14.77,1.97v.63c0,.79-.25,1.42-.76,1.9s-1.17.73-2.01.73-1.52-.24-2.03-.73-.76-1.13-.76-1.93v-.65Zm1.69.69c0,.32.11.6.32.83s.47.34.79.34c.71,0,1.07-.4,1.07-1.19v-.67c0-.35-.1-.63-.3-.85s-.46-.32-.79-.32-.59.11-.79.32-.3.51-.3.87v.66Z"/><path class="cls-1" d="m9.47,47.7c-.31.38-.75.57-1.3.57-.51,0-.9-.15-1.17-.44-.27-.29-.41-.72-.41-1.29v-3.12h1.27v3.08c0,.5.23.74.68.74s.73-.15.89-.45v-3.37h1.27v4.75h-1.2l-.04-.48Z"/><path class="cls-1" d="m12.74,43.43l.04.55c.34-.42.79-.64,1.37-.64.5,0,.88.15,1.12.44s.37.74.38,1.33v3.07h-1.27v-3.04c0-.27-.06-.46-.18-.59-.12-.12-.31-.18-.58-.18-.36,0-.62.15-.8.46v3.35h-1.27v-4.75h1.2Z"/><path class="cls-1" d="m16.32,45.77c0-.74.17-1.33.5-1.77.33-.44.79-.66,1.36-.66.46,0,.84.17,1.15.52v-2.43h1.27v6.75h-1.15l-.06-.51c-.32.4-.72.59-1.22.59-.56,0-1.01-.22-1.35-.66-.34-.44-.51-1.05-.51-1.84Zm1.27.09c0,.45.08.79.23,1.03.16.24.38.36.68.36.39,0,.67-.17.83-.5v-1.88c-.16-.33-.43-.5-.82-.5-.61,0-.92.5-.92,1.49Z"/><path class="cls-1" d="m24.84,43.43l.04.53c.34-.41.79-.62,1.37-.62.61,0,1.03.24,1.26.73.33-.48.81-.73,1.43-.73.52,0,.9.15,1.15.45.25.3.38.75.38,1.36v3.04h-1.28v-3.03c0-.27-.05-.47-.16-.59-.11-.12-.29-.19-.56-.19-.38,0-.64.18-.79.54v3.27s-1.26,0-1.26,0v-3.03c0-.28-.05-.47-.16-.6s-.29-.19-.55-.19c-.36,0-.62.15-.78.45v3.36h-1.27v-4.75h1.19Z"/><path class="cls-1" d="m33.54,48.27c-.7,0-1.26-.21-1.7-.64-.44-.43-.66-1-.66-1.71v-.12c0-.48.09-.9.28-1.28.18-.38.45-.67.78-.87.34-.2.72-.31,1.16-.31.65,0,1.16.21,1.54.62.37.41.56.99.56,1.75v.52h-3.03c.04.31.17.56.37.75.21.19.47.28.78.28.49,0,.87-.18,1.15-.53l.62.7c-.19.27-.45.48-.77.63-.33.15-.69.23-1.08.23Zm-.14-3.91c-.25,0-.46.08-.61.26-.16.17-.26.42-.3.73h1.77v-.1c0-.28-.08-.5-.23-.66s-.35-.23-.62-.23Z"/><path class="cls-1" d="m37.36,43.95c.34-.4.76-.61,1.27-.61,1.03,0,1.55.6,1.57,1.8v3.04h-1.27v-3.01c0-.27-.06-.47-.18-.6-.12-.13-.31-.2-.58-.2-.37,0-.64.14-.81.43v3.38h-1.27v-6.75h1.27v2.51Z"/><path class="cls-1" d="m43.74,44.62c-.17-.02-.33-.04-.46-.04-.48,0-.8.16-.95.49v3.11h-1.27v-4.75h1.2l.04.57c.25-.44.61-.66,1.06-.66.14,0,.27.02.4.06l-.02,1.22Z"/></g></svg>